<svg version="1" xmlns="http://www.w3.org/2000/svg" width="726.667" height="726.667" viewBox="0 0 545.000000 545.000000"><path d="M484 166.6c-8.7 2.4-14.7 6.5-21.1 14.4-4.5 5.6-6.2 8.8-8.8 17-2.6 8.4-3.1 11.9-3.2 23.8-.2 23 5.4 38.2 18 48.5 6.2 5 13.9 7.8 23.6 8.4 29.7 2 48-19.8 47.8-56.7-.1-14.5-2.7-25.4-8.4-35.5-9.6-17.1-28.7-25-47.9-19.9zm20.5 23.8c7.3 5.6 10.5 16.9 10 35.1-.5 19.6-6 29.6-17.2 31.2-3.8.5-9.3-1.1-12-3.5-9.9-8.9-12.3-40.4-4.3-56.2 4.9-9.6 15.6-12.6 23.5-6.6zM1.9 168.2c-.1 1.6-.1 19 0 20 .1.5 5.9.8 13.1.8h13v88h25v-88h13c12.8 0 13 0 13.1-2.3.1-2.7.1-15.5 0-18-.1-1.6-2.6-1.7-38.6-1.7-30.1 0-38.5.3-38.6 1.2zM88 222v55h25v-43.2l16.6 21.6 16.5 21.6h16c12.6 0 15.9-.3 15.2-1.3-.7-1.1-28.8-35.1-34-41-1.4-1.6-2.3-2.9-2.1-3 11.1-5.6 15.4-9.5 19.2-17.6 1.7-3.7 2.1-6.4 2.1-14.6-.1-8.8-.4-10.6-2.7-15-4.5-8.5-8.7-12.1-18.4-15.4-5.3-1.7-8.7-2-29.7-2.1l-23.7-.1V222zm41.6-32.7c4.5 2.3 6.8 6.4 6.7 11.9-.3 9.6-5.3 13.8-16.8 14.1l-6 .2-.3-14.4-.3-14.4 6.8.5c3.8.3 8.2 1.2 9.9 2.1zM184 222v55h63v-22h-38v-22h18c16.4 0 18-.2 18.1-1.8.1-2.4.1-10.8 0-16l-.1-4.2h-36v-22h38v-22h-63v55zM262.5 177.7v10.8l23.2.5 23.2.5-26 42c-14.3 23.1-26.5 42.8-27 43.7-.9 1.7 1.6 1.8 46.4 1.8h47.4v-22l-25.2-.2-25.2-.3 8-13c4.4-7.2 16.5-26.6 26.9-43.3 10.3-16.7 18.8-30.5 18.8-30.8 0-.2-20.4-.4-45.3-.4h-45.3l.1 10.7zM396.8 173.2c-2.9 3.5-6.2 7.4-7.3 8.7-1.1 1.3-4.7 5.6-8 9.5-17.4 20.3-22.5 31.9-22.2 49.3.2 8.4.6 10.6 2.9 15.3 5.4 11 17.3 19.7 30.5 22.1 3.2.6 9.7.9 14.4.6 17.4-1.1 30.6-10.4 35-24.9 5.8-18.9-2.2-39.1-18.8-47.3-4.8-2.4-7.1-2.9-13.5-3-8.7 0-8.7 1.1-.3-8.5 2.2-2.5 6.5-7.5 9.5-11 8.2-9.6 13.4-15.4 14.5-16.2.6-.4-6.3-.8-15.2-.8h-16.1l-5.4 6.2zm15.6 55.1c3.2 2.3 6.5 8.8 6.6 13 0 8.9-7.9 16.7-17 16.7-12.2 0-19.9-11.2-15.5-22.5 3.9-10.4 16.5-13.9 25.9-7.2zM160.2 322.2c-9 4.7-10.4 17-2.5 22.5 1.5 1.1 5.4 3.2 8.5 4.6 6.3 3 8 5.7 5.3 8.7-2.1 2.3-9.4 1.9-14.2-1-3.9-2.3-3.9-2.3-7.1 3.1l-2.2 3.7 2.6 1.6c7.5 5 21 5.9 27.4 1.9 4.4-2.7 5.9-5.2 6.7-10.8.9-6.8-2.1-10.6-12.4-15.6-9.1-4.5-9.7-5-8.8-7.9 1.1-3.4 7.3-3.6 14.5-.6 1.1.4 2-.5 3.3-3.4.9-2.2 1.7-4.4 1.7-4.8 0-1.3-7.7-3.5-13.5-3.9-3.8-.3-6.1.2-9.3 1.9zM364.6 321.4c-13 4.8-19.5 19.7-14.5 33.2 2.1 5.5 7.4 11.1 12.9 13.6 5 2.2 15.4 1.7 20.7-1 13.8-7.1 17.2-27.5 6.5-39.6-5.5-6.1-17.8-9.1-25.6-6.2zm14 10.8c1.2.5 3.2 2.8 4.4 5 4.3 7.7.9 19.7-6.3 21.4-9.8 2.4-15.8-2.2-16.3-12.5-.6-12.3 8-18.8 18.2-13.9zM190.6 325.2c.1 2.4.2 4.6.3 4.9 0 .3 2.5.5 5.4.5l5.2-.1.3 19.2.2 19.3h11v-38.7l4.8.2c6.4.3 6.8 0 6.7-4.8v-4.2l-17-.3-17-.2.1 4.2zM233.1 338.7c.1 20.1.8 23.3 6 27.5 2.8 2.2 4.9 3 10.2 3.5 5.8.5 7.2.3 11.9-2 7.8-3.8 8.8-7.1 8.8-29.5V321h-11v16.2c0 19.7-.5 21.2-7.1 21.6-7.4.5-7.7-.4-7.8-22.6L244 321h-11l.1 17.7zM280 345v24.3l10.8-.5c8.2-.4 11.6-.9 14.7-2.5 7.6-4 12.4-11.1 13-19.4.7-9.8-3.6-17.9-12-22.6-4.4-2.4-6.3-2.8-15.7-3.1l-10.8-.4V345zm20.7-11.8c5.9 4.1 7.9 11.7 4.7 18.1-2.8 5.3-6.5 7.7-12 7.7H291v-28h3.2c1.7 0 4.7 1 6.5 2.2zM328 345v24h11v-48h-11v24zM99.3 352.5l-.2 4.5H118v-9H99.5l-.2 4.5zM426.6 348.9c-.3.4-.5 2.5-.4 4.5l.1 3.6H445v-9h-8.9c-5 0-9.2.4-9.5.9z"/></svg>