<?xml version="1.0" encoding="utf-8"?>
<!-- Generator: Adobe Illustrator 24.2.3, SVG Export Plug-In . SVG Version: 6.00 Build 0)  -->
<svg version="1.1" id="Capa_1" xmlns="http://www.w3.org/2000/svg" xmlns:xlink="http://www.w3.org/1999/xlink" x="0px" y="0px"
	 viewBox="0 0 1080 1080" style="enable-background:new 0 0 1080 1080;" xml:space="preserve">
<style type="text/css">
	.st0{fill:#AE4921;}
</style>
<path class="st0" d="M749.6,354.2c10.5,5.2,20,14.1,27,25.5c17.5,28.4,24.2,58.3,8.7,89.4c-10.2,20.6-28.1,32-48.5,38.3
	c-16.2,5.1-33,8.2-49.5,12.6c-10.8,2.9-19.8,9.2-27.9,17.5c-19.9,20.3-40.2,40.5-65.9,52.2c-44.5,20.2-88.5,16.7-130.1-11.5
	c-23.9-16.2-37.3-52-31.7-79c0.3-1.4,0.9-2.7,1.7-4.1c-0.3,24.7,13.2,39.3,32.4,49.1c25.1,12.7,51.7,15.3,78.9,12.1
	c20.8-2.4,40.3-9,58.4-19.4c11.6-6.7,23.4-14.4,32.4-24.4c17.7-19.5,39.9-27.5,63.7-33.1c17.8-4.1,35.1-9.8,50.6-20.3
	c25.3-17.1,31.9-37.4,19.9-66.9C764.3,378.8,756.2,366.4,749.6,354.2"/>
<path class="st0" d="M517,378.6c-4.9-0.2-9.8-0.4-15.6-0.6c0.9-11.9,1.7-23.4,2.5-34.8c5.7-1.6,10.9-3.1,16.2-4.6
	c0-0.4-0.1-0.7-0.1-1.1c-5.1-0.4-10.1-0.7-16-1.1c0.7-9.9,1-19.3,2.2-28.5c0.2-1.9,3.4-4.1,5.6-4.6c5.6-1.4,11.5-2,17.1-3.9
	c-6.3-0.7-12.6-1.4-20.8-2.3c5.7-10.9,10.5-20.9,16.1-30.3c1.1-1.9,5.1-1.9,7.8-2.7c2.9-0.8,5.8-1.4,8.6-3.6
	c-3.6-0.4-7.3-0.9-12.1-1.5c4.6-8.7,8-17.7,13.6-24.7c2.7-3.4,9.7-2.8,16-4.4c-4.9-1.2-8.6-2.1-12.7-3c2.6-7.9,5-15.6,7.8-23
	c0.6-1.4,3-2.6,4.8-2.8c3.9-0.5,7.8-0.2,11.8-1.7c-5-1.4-10-2.8-15.1-4.2c0.5-8.2,1-15.7,1.5-24c3.4,0,6.8,0,11.6,0.1
	c-6.1-3-15-1-13.7-11.6c-0.4,2.1-0.9,4.2-1.6,7.4c-8-3.9-15.5-7.6-23.8-11.6c2.6-2.7,4.3-4.3,6.2-6.2c-10.7,3.5-13.4,2.2-22.1-11.2
	c4.3,0.4,7.8,0.8,12.2,1.2c-28.9-14.7-83.9-3.4-112,34.1c-0.5-0.4-1-0.8-1.6-1.2c5.6-8.1,10.4-17.1,16.9-24.3
	c18.7-20.5,41.6-31.6,68.9-34.2c20.4-1.9,39.7,0.4,58.1,10.3c36.5,19.5,49.2,58.7,30.7,96.8c-5.2,10.7-12.3,20.4-18.3,30.7
	c-5.8,9.9-11.5,19.8-16.8,29.9c-8.3,15.7-10.5,32.5-8.4,50.7c3.2,27-0.1,53.3-9.5,78.5c-0.9,2.3-2.9,5.6-4.6,5.7
	c-11.4,0.8-22.9,0.9-34.6,1.2c2.1-10.4,3.8-20,6.2-29.4c0.5-2,3.1-4.1,5.2-4.8c3.8-1.5,8-2,12-3C517.2,379.8,517.1,379.2,517,378.6"
	/>
<path class="st0" d="M547.9,546.3c-22.3,4.2-44.6,3.6-66.1-4.8c-9.5-3.8-19.1-9.2-26.8-16.2c-15.6-14.2-17.4-36-6.3-53.8
	c5.7-9.2,10.2-19.7,17.5-27.2c15.4-15.7,35.9-19.2,56.6-19.8c12.4-0.3,24.9,1.9,37.3,1.8c7.5,0,15.1-1.9,22.4-3.6
	c2.1-0.5,4.5-3.3,5.2-5.6c13.5-42.5,45-60.5,83.8-68.2c23.2-4.6,45.3-2,65.6,13c16.9,12.5,25.9,29.9,27.9,50.8
	c1.8,19.2-10,30.7-23.7,40.1c-16.1,11.1-34.4,15.9-52.8,20.6c-20.4,5.2-39.4,12.2-54.8,28.8c-19.4,20.8-43.8,33.5-70.3,41.6
	C558.5,545.2,553.1,545.5,547.9,546.3 M546.9,535.4c13.1-5.3,26.2-9.9,38.6-15.9c14.7-7,19.6-23.5,28.1-36.3
	c1.1-1.6,0.8-5.4-0.3-7.2c-10.1-16.2-21-31.8-40.3-36.5c-21.3-5.2-42.9-7-64.4-4.2c-34.3,4.5-52.2,27.4-49.4,60.7
	c1.3,15.6,8.6,25.7,21.9,31.4c4.2,1.8,8.6,3.9,13.1,4.3C511.6,533.4,529,534.3,546.9,535.4 M682.6,462.5c18.1-5.1,35.5-10,51-20.5
	c11.4-7.6,16.6-17.9,14.6-32.6c-3-21.3-10.6-38.8-31-47c-32-12.8-80.9,0.4-101.4,28.9c-7.6,10.6-12,23.9-18.1,35.8
	c-2.9,5.6-1.3,8.7,3.8,11.5c8.1,4.5,15.8,9.8,23.9,14.2c5.8,3.1,11.8,6.6,18,7.4C656.3,461.8,669.4,461.8,682.6,462.5"/>
<path class="st0" d="M760.2,268.7c2.7,0.6,4.7,1,7.5,1.6c-8.5-7-8.9-8.9-4.5-23.1c1.6,2.4,2.9,4.4,4.3,6.4
	c-13.9-42.1-42.8-63.6-83.6-68.6c22.7-5.3,44.5-1.4,64.2,11.6c30.1,20,48,48.5,48,86.7c0,28.9-13.4,49.5-37.8,61.7
	c-2.1,1-5.3,1.4-7.3,0.5c-19.9-8.8-40.6-10.9-61.6-9.7c-5.9,0.3-9.2-1.2-9.9-8.4c9.3-1.5,18.7-3.1,28.1-4.3c1.4-0.2,3.2,1.6,4.5,2.9
	c1.9,2.1,3.5,4.5,6.3,6.1c-1.2-3.2-2.4-6.4-3.8-10.1c7.8-2.8,15.4-5.5,23.4-8.3c2.7,3.8,5.3,7.6,8,11.5c0.4-0.2,0.8-0.3,1.2-0.5
	c-1.3-4.5-2.7-9-4.1-13.7c5.8-3.8,11.4-7.5,17.3-11.4c2.2,3.7,4.4,7.6,6.6,11.3C764.7,297,762.5,283.1,760.2,268.7"/>
<path class="st0" d="M353.7,374c-16.1,57.3,6.1,98.7,54.9,100c-32-12.8-48.8-35.5-47.1-71.5c6.6,10.7,18.5,17,21,31.4
	c1.9,10.9,9.5,18.7,17.8,25.9c-3.5-8.5-6.8-16.6-10.2-24.7c0.5-0.4,1-0.7,1.5-1.1c7.9,4,16,7.8,23.6,12.4c1.9,1.2,2.4,5.2,3.3,8
	c1.2,3.5,2.1,7.1,4.3,10.4c0.1-4.9,0.2-9.7,0.3-15.2c7.6,1.5,14.6,2.9,22.8,4.5c-3.5,6.5-6.8,12.8-10.2,19.1
	c-4.3,8.1-8.5,16.2-13,24.1c-1,1.8-3.2,3.9-4.9,3.9c-29.5-0.3-64-15.6-77.4-51.5c-4.5-12-6.2-24.6-3-36.7c3.6-13.7,9.2-26.8,14-40.1
	C352.2,373.1,352.9,373.5,353.7,374"/>
<path class="st0" d="M564,382.9c3.4,4.5,6.2,8.3,8.9,12c0.4-0.2,0.8-0.5,1.2-0.7c-1.5-4.3-2.9-8.6-4.5-13.4
	c10.2-6.6,20.2-13.1,30.6-19.8c2,2.7,3.8,5,5.5,7.3c-5.4,7-10.8,13.6-15.6,20.5c-2.7,3.8-5.3,8.1-6.3,12.6
	c-2.6,11.1-10.1,14.7-19.5,15.4c-6.8,0.6-13.8,0-21.5-0.1c2.5-9.2,3.7-18.3,7.6-25.7C552.6,387.1,559.3,385.6,564,382.9"/>
<path class="st0" d="M481.4,417.1c-15.8-4.4-30.7-8.5-46.5-12.8c4.2-9.7,7.6-17.6,10.8-25.1c14.6,2.5,28.6,4.9,43.4,7.5
	C486.7,396.2,484.2,405.9,481.4,417.1"/>
<path class="st0" d="M490.8,208.9c4.7-10.2,8.4-18.3,12-26.3c14,5.7,27.4,11.2,41.6,17.1c-3.1,6.9-6.3,14.3-10,21.6
	c-0.6,1.3-3.2,2.5-4.4,2.1C517.3,218.9,504.7,214.1,490.8,208.9"/>
<path class="st0" d="M698.7,268.3c9.8-1.5,18-2.8,26.1-4.1c3,13.4,6,26.8,9.3,41.5c-7,1.4-14.6,3-22.2,4.2c-0.9,0.1-2.8-1.4-3-2.4
	C705.4,294.8,702.3,282.1,698.7,268.3"/>
<path class="st0" d="M487.6,219.5c14.6,4.3,27.8,8.1,41.7,12.2c-4.2,7.7-8.4,15.8-13.1,23.6c-0.6,1.1-3.3,1.6-4.8,1.2
	c-8.4-2.1-16.8-4.3-25-7c-1.6-0.5-3.7-3.6-3.5-5.1C484.2,236.1,486,227.8,487.6,219.5"/>
<path class="st0" d="M447.3,192c10.6,7.4,19.1,13.1,27.4,19.4c1.4,1.1,2.5,4.5,2.1,6.5c-1.7,8.1-3.9,16.1-6.5,26.3
	c-9.9-6.8-19.5-13.3-28.9-20c-0.8-0.6-1.1-2.8-0.8-4C442.6,211,444.9,201.9,447.3,192"/>
<path class="st0" d="M451,368.2c4.8-9.4,8.7-17.4,12.9-25.2c0.7-1.2,3.1-2.1,4.6-2c7.6,0.8,15.2,1.9,23.7,3
	c-0.6,10.7-1.3,21.4-2.1,33.8C476.9,374.5,464.5,371.5,451,368.2"/>
<path class="st0" d="M702.1,311.7c-8.2,1.3-16.4,2.8-24.7,3.7c-1.6,0.2-4.5-1.8-5-3.5c-2.7-7.9-4.9-16-6.9-24.1
	c-0.4-1.6,0.9-4.6,2.2-5.3c7.1-3.9,14.4-7.3,21.4-10.7C693.6,285.4,697.7,298.1,702.1,311.7"/>
<path class="st0" d="M584.9,324.8c3.2,8.9,6.4,17.6,9.8,27c-9.3,5.9-18.4,11.7-29.4,18.7c-2.1-13.4-4.1-25.1-5.6-36.9
	c-0.2-1.6,1.9-4.8,3.3-5.2C570.2,326.9,577.5,326,584.9,324.8"/>
<path class="st0" d="M687.9,261c-7.8,3.3-16.1,6.9-26.2,11.3c0.3-12.5,0.4-23.5,0.9-34.6c0.1-1.8,2-4.3,3.6-5
	c7.2-3.1,14.6-5.6,22.5-8.6C688.4,237.3,688.1,248.9,687.9,261"/>
<path class="st0" d="M424.5,438.6c2.4-8.6,4.4-16.3,6.4-23.4c15.6,3.3,30.4,6.4,44.2,9.3c-7.2,6.2-15.1,13.1-23.1,19.9
	c-0.9,0.8-2.7,1.3-3.8,1C440.5,443.3,432.9,441,424.5,438.6"/>
<path class="st0" d="M497.6,178c-5.1,8.2-9.9,16-15.6,25.4c-8.9-6.6-17.7-13-28.2-20.8c8-7.6,13.7-13.4,19.9-18.6
	c1.3-1.1,5.1-0.6,6.8,0.7C486.3,168.6,491.7,173.3,497.6,178"/>
<path class="st0" d="M467.9,286.7c-7.8-4.1-14.7-7.5-21.5-11.3c-1.5-0.8-3.1-2.9-3.4-4.5c-1.9-10.2-3.4-20.5-5.2-32
	c11,5.9,20.3,10.8,29.5,16c1.1,0.6,1.8,3.3,1.7,5C468.9,268.1,468.3,276.5,467.9,286.7"/>
<path class="st0" d="M726.3,229c-0.6,9.8-1.1,18.4-1.6,27c-8.6,0.6-16.8,1.1-26.6,1.7c0.6-10.4,1-20.4,2-30.3c0.1-1.2,3.6-3,5.3-2.8
	C712.3,225.7,719,227.4,726.3,229"/>
<path class="st0" d="M508.3,175.5c1.8-2.4,2.5-3.4,3.3-4.4c10.5-12.5,10.5-12.3,25.2-6c4.9,2.1,10,3.5,15.8,5.5
	c-1.8,7.2-3.5,14.4-5.6,23.1C533.6,187.5,521.5,181.8,508.3,175.5"/>
<path class="st0" d="M629.5,294.8c-6-24.1-0.2-38,20.4-50.5c0.8,10.5,1.7,21.1,2.4,31.6c0.1,1.3-0.6,3.1-1.5,3.8
	C644,284.7,637.1,289.4,629.5,294.8"/>
<path class="st0" d="M481,259.9c10.4,1.7,19.8,3.4,29.7,5c-4,9.3-7.9,18.6-12.1,27.8c-0.4,1-2.3,1.7-3.4,1.7
	c-11.6-0.1-15.2-4-15-16.5C480.3,272.1,480.7,266.3,481,259.9"/>
<path class="st0" d="M520.2,157c-5.2,4.4-10.7,9.2-16.8,14.4c-5.7-5-11.3-9.9-17.7-15.4c6.1-2.8,10.8-4.9,15.4-7
	c-0.1-0.3-0.1-0.5-0.2-0.8c-6.1,1-12.2,1.9-19.3,3.1c-1.3-1.8-3.2-4.3-5.4-7.4c7.8-6.1,17-4.5,25.4-6c1-0.2,2.5,1.3,3.5,2.3
	C510.1,145.7,515,151.3,520.2,157"/>
<path class="st0" d="M415.8,435.1c-8.2-5.4-15.8-10.2-23.1-15.4c-1.1-0.7-1.9-3.1-1.7-4.4c1.4-7.3,3.3-14.5,5.1-22.3
	c8.7,5.8,16.2,10.7,23.9,15.9C418.8,416.9,417.5,425,415.8,435.1"/>
<path class="st0" d="M739.9,304c-2.2-14.1-4.2-26.5-6.4-40.4c6.4,1,12.5,1.6,18.4,3.1c1.3,0.3,2.5,3.3,2.8,5.2
	c1.5,7.7,2.5,15.5,3.9,24.4C753.5,298.4,747.4,300.9,739.9,304"/>
<path class="st0" d="M748.5,242c-3.1-8.6-17.8-10.7-8.7-24.7c5.9,6.5,14.2,11.9,16.6,19.4c2.4,7.2-1.3,16.5-2.3,25.4
	c-6.7-1.8-13.4-3.5-21.1-5.5c0.5-7.3,0.9-14.6,1.5-23.2C739.7,236.5,743.8,239.1,748.5,242"/>
<path class="st0" d="M666,316.7c-9.8,2.5-19.3,4.8-29.8,7.5c-1.4-4.6-3-9.3-4.1-14.1c-0.3-1.3,0.7-3.5,1.7-4.4
	c6.9-5.3,13.9-10.3,21.4-15.8C659,299.4,662.4,308,666,316.7"/>
<path class="st0" d="M412.9,360c7.4,4.7,14.2,9,21.3,13.6c-3.2,7.7-6.5,15.5-10.3,24.5c-7.7-5.3-15-10.3-22.9-15.7
	C405.2,374.4,409,367.3,412.9,360"/>
<path class="st0" d="M439.8,362.7c-7.2-4.6-13.5-8.7-20.6-13.2c5.1-7.9,9.7-15.1,14.4-22.4c6.5,3.2,12.5,6.2,19.5,9.6
	C448.6,345.2,444.4,353.4,439.8,362.7"/>
<path class="st0" d="M429.3,262.5c-18.2-11.7-23.1-25.7-17.5-52.5c5,5.8,9.8,11.3,14.5,16.8c0.5,0.5,0.8,1.3,0.9,2.1
	C427.9,240.1,428.6,251.3,429.3,262.5"/>
<path class="st0" d="M624.1,314.6c1.5,3.5,3.3,7.9,5.2,12.8c-9.4,6.4-18.7,12.7-28.7,19.5c-2.1-8.3-4-15.6-5.9-23.2
	C604.8,320.5,614.2,317.6,624.1,314.6"/>
<path class="st0" d="M469.2,298.6c-3.2,9.4-6.2,18.2-9.6,28.1c-7.2-3.6-13.1-6.6-18.1-9.1c2.6-9.5,4.9-18.1,7.4-27
	C454.2,292.7,460.6,295.3,469.2,298.6"/>
<path class="st0" d="M492.3,335.6c-7.6-1.7-14.3-3.3-21.4-4.9c3.4-10,6.5-19.4,10-29.6c4,0.6,8.8,1.3,14,2.1
	C494.1,313.9,493.3,324.1,492.3,335.6"/>
<path class="st0" d="M428.1,211.8c-3.7-5.1-7.5-9.9-10.9-15c-0.9-1.3-1.2-4.1-0.5-5.4c4.2-7.4,8.7-14.6,13.6-22.6
	c4.5,5.9,7.9,10.4,10.9,14.4C436.9,192.8,432.7,201.9,428.1,211.8"/>
<path class="st0" d="M743.4,347.6c0.5,3.1,1.1,7.1,1.7,11.1c1.6,9.8,0.9,11.1-7.8,14.2c-2,0.7-4.2,1.1-6.3,1.5
	c-3.5,0.6-7,1.1-11.5,1.8c-0.4-7-0.7-13.2-1-18.7C727,354.2,735,351,743.4,347.6"/>
<path class="st0" d="M593.2,276.7c1.4-9.2,1.7-17.3,10-23.1c6.6-4.6,11.1-12.4,17.1-19.5C618.2,265.5,611.3,276.5,593.2,276.7"/>
<path class="st0" d="M429.3,308.9c-4-3.8-7.7-7.1-11.1-10.6c-1-1-2-2.5-2-3.8c-0.4-9.4-0.6-18.9-0.8-27.7
	C441.6,284.7,439,292.1,429.3,308.9"/>
<path class="st0" d="M659.2,204.5c-6.5,23.1-10.2,28.4-29.5,42.4C630.7,225.9,639.2,211.1,659.2,204.5"/>
<path class="st0" d="M580.7,291.2c0.5,1.1,0.9,1.5,0.9,2c1.5,20.9-0.2,22.7-22.9,22.2c0.7-7,1.3-13.9,2.3-20.7
	c0.2-1,1.9-2.4,2.9-2.5C569.6,291.6,575.2,291.5,580.7,291.2"/>
<path class="st0" d="M379.7,406.9c-16.7-16-18.1-24.1-7.1-39.9c4.2,4.9,8.4,9.7,12.4,14.8c1,1.3,1.4,3.7,1,5.2
	C384.1,393.5,382,399.8,379.7,406.9"/>
<path class="st0" d="M391.1,336.9c4.6,5.2,8.8,10.1,13.1,15.1c-4,6.9-7.8,13.7-11.7,20.5c-0.8-0.4-1.4-0.5-1.7-0.9
	C375.8,352.7,375.4,358.9,391.1,336.9"/>
<path class="st0" d="M695,198.8c0.1,0.3,0.1,0.5,0.1,0.8c-1.2,10.3-4.7,17.8-16.5,16.9c-3.8-0.3-7.8,1.9-11.8,3
	C668,200,677.6,193.1,695,198.8"/>
<path class="st0" d="M411.1,307.3c4.3,4.2,8.1,8.1,12.5,12.4c-4.1,7-8.3,13.9-12.3,20.8c-0.9-0.3-1.5-0.3-1.8-0.6
	C396.8,327.4,396.8,326.2,411.1,307.3"/>
<path class="st0" d="M472.9,155.3c-9,7-15.9,12.5-23.6,18.4c-2.7-3.5-5.7-7.4-9.8-12.7c8.1-4.7,15.3-9.7,23.3-13
	C464.7,147.3,468.9,152.3,472.9,155.3"/>
<path class="st0" d="M608.6,366.5c-1.3-3-2.4-5.8-3.7-8.9c9.8-6.8,19.2-13.4,29.3-20.3c2.6,3.6,4.8,6.7,7.2,10
	C630.3,353.7,619.9,359.8,608.6,366.5"/>
<path class="st0" d="M644.3,346c-1.4-3.4-2.7-6.6-5-12c11.4-1.9,22.2-4.2,33.1-5.3c2.1-0.2,4.6,4.3,7.5,7.2
	C667.6,339.4,656.4,342.5,644.3,346"/>
<path class="st0" d="M702.2,214.8c1.5-4.9,2.8-9.4,4.4-14.8c5.1,2.1,9.8,3.9,14.3,6c10.7,4.9,10.6,5,6.5,16.8
	C719.3,220.2,711.2,217.7,702.2,214.8"/>
<path class="st0" d="M585.5,261.6c-1,5.4-2,10.8-3,16.9c-5.8,0.6-11.7,1.2-17.6,1.8C568.7,265.3,573.7,260.7,585.5,261.6"/>
<path class="st0" d="M554,359.9c5.8,12.5,7.3,14.6-0.7,14.9C553.5,370.4,553.7,366.1,554,359.9"/>
<path class="st0" d="M477.5,509.3c14.1,19.8,82.1,15.9,108.2-5.3C550.2,514.1,514.5,517.3,477.5,509.3 M584.3,469.5
	c-29-21.6-74.5-15.8-95.1,0.9C521.3,461.2,552.6,460.3,584.3,469.5 M556,445.8c-22.4-7.3-44.7-9.8-67.7,3.1
	c12.5-1.3,23.3-3,34.1-3.5C533.5,444.9,544.7,445.6,556,445.8"/>
<path class="st0" d="M720.9,374.6c-25.8-19.2-98.5,6.6-108.1,37C643.4,383.7,679.4,372.4,720.9,374.6 M731,400.6
	c-15.2-15.6-77-9.7-101.3,11.4C663.3,398.5,696.1,394.3,731,400.6 M626.6,436.5c27.4,18.8,69.7,19.3,81.8,1.4
	C667.8,449.7,653.8,445.4,626.6,436.5"/>
<path class="st0" d="M477.5,509.3c37,8,72.7,4.8,108.2-5.3C559.6,525.2,491.7,529.1,477.5,509.3"/>
<path class="st0" d="M584.3,469.5c-31.7-9.2-63-8.4-95.1,0.9C509.8,453.8,555.3,447.9,584.3,469.5"/>
<path class="st0" d="M593.5,488c-11.2-0.2-22.4-0.9-33.6-0.4c-10.8,0.5-21.6,2.2-34.1,3.5C548.8,478.2,571.1,480.8,593.5,488"/>
<path class="st0" d="M720.9,374.6c-41.5-2.2-77.5,9.2-108.1,37C622.4,381.2,695.1,355.4,720.9,374.6"/>
<path class="st0" d="M731,400.6c-35-6.3-67.8-2.1-101.3,11.4C654,390.9,715.8,385,731,400.6"/>
<path class="st0" d="M626.6,436.5c27.2,8.9,41.2,13.2,81.8,1.4C696.3,455.8,654,455.3,626.6,436.5"/>
<path class="st0" d="M229.7,869.4c0,4.3-1.9,6.6-5.8,6.6h-21.7c-3.7,0-5.8-1.9-5.8-5.8v-16.8c0-3.9-1.9-5.8-5.8-5.8H174
	c-3.7,0-5.8,1.9-5.8,5.8v16.8c0,3.9-1.9,5.8-5.8,5.8h-21.7c-3.7,0-5.8-2.3-5.8-6.6v-82c0-24.3,3.8-50.3,47.4-50.3
	c43.5,0,47.4,25.9,47.4,50.3V869.4z M196.5,787.4c0-9.3-1.4-13.9-14.1-13.9c-12.8,0-14.1,4.6-14.1,13.9v21.1c0,3.7,2.1,5.8,5.8,5.8
	h16.6c3.9-0.2,5.8-2.1,5.8-6V787.4z"/>
<path class="st0" d="M369.3,865.6c2.7,5-0.4,10.4-6.4,10.4h-22c-1.9,0-3.7-1-4.4-2.7l-20.1-38.9c-0.4-0.6-1-1-1.5-1H307
	c-3.5,0-6,2.5-6,6V870c0,3.5-2.5,6-6,6h-21.6c-3.5,0-6-2.5-6-6V746.7c0-3.5,2.5-6,6-6h42.3c34.4,0,48.3,14.7,48.3,46.4
	c0,18-4.4,30.5-14.7,37.9c-0.8,0.6-1,1.6-0.6,2.5L369.3,865.6z M307,773.9c-3.5,0-6,2.5-6,6v14.3c0,3.5,2.5,6,6,6h9.9
	c9.3,0,13.9-1.2,13.9-13.1c0-12-4.7-13.2-13.9-13.2H307z"/>
<path class="st0" d="M495.2,869.4c0,4.3-1.9,6.6-5.8,6.6h-21.7c-3.7,0-5.8-1.9-5.8-5.8v-16.8c0-3.9-1.9-5.8-5.8-5.8h-16.6
	c-3.7,0-5.8,1.9-5.8,5.8v16.8c0,3.9-2,5.8-5.8,5.8h-21.7c-3.7,0-5.8-2.3-5.8-6.6v-82c0-24.3,3.9-50.3,47.4-50.3
	c43.5,0,47.4,25.9,47.4,50.3V869.4z M461.9,787.4c0-9.3-1.4-13.9-14.1-13.9c-12.8,0-14.1,4.6-14.1,13.9v21.1c0,3.7,2.1,5.8,5.8,5.8
	h16.6c3.9-0.2,5.8-2.1,5.8-6V787.4z"/>
<path class="st0" d="M531,784.2c0-12.8,2.7-47,48.5-47c41.2,0,47.6,27.7,48.3,42.5c0.2,2.7-1.6,4.8-4.3,5.4l-21.5,4.9
	c-4.1,0.8-7.2-1.9-7.7-6c-0.9-8.5-4.4-13.5-14.9-13.5c-14.3,0-15.3,9.1-15.3,24v27.8c0,14.9,1,24,15.3,24c10.6,0,13.5-5,14.7-13.9
	c0.6-4.1,3.7-6.6,7.5-5.6l21.8,4.8c2.7,0.6,4.5,2.7,4.3,5.6c-0.8,14.7-7.2,42.3-48.3,42.3c-45.8,0-48.5-34.2-48.5-47V784.2z"/>
<path class="st0" d="M687.9,740.6c3.7,0,5.8,2.1,5.8,5.8v48.3c0,3.7,2.1,5.8,5.8,5.8h18.6c3.9,0,5.8-2.1,5.8-5.8v-48.3
	c0-3.7,2.1-5.8,5.8-5.8h21.7c3.9,0,5.8,1.9,5.8,5.8v123.7c0,3.7-1.9,5.8-5.8,5.8h-21.7c-3.7,0-5.8-2.1-5.8-5.8v-30.5
	c0-3.9-1.9-5.8-5.8-5.8h-18.6c-3.7,0-5.8,1.9-5.8,5.8v30.5c0,3.7-1.9,5.8-5.8,5.8h-21.6c-3.7,0-5.8-2.1-5.8-5.8V746.5
	c0-3.9,1.9-5.8,5.8-5.8H687.9z"/>
<path class="st0" d="M822.9,740.6c3.9,0,5.8,1.9,5.8,5.8v123.7c0,3.7-1.9,5.8-5.8,5.8h-21.3c-3.7,0-5.8-2.1-5.8-5.8V746.5
	c0-3.9,2.1-5.8,5.8-5.8H822.9z"/>
<path class="st0" d="M934.9,788.6c-3.9,0.8-5.8-0.9-6.4-4.8c-1.4-7.9-7.7-13-16.8-13c-7.5,0-12.2,4.4-11.4,8.9
	c2.7,15.1,63.8,14.7,63.8,59.2c0,5.8-6.6,40-52.4,40c-40.6,0-49.3-26.7-50.3-41.8c-0.2-3.5,1.5-5.6,5-6.4l21.8-4.8
	c3.9-0.8,6,1,6.4,5c0.8,9.3,7.9,14.7,17,14.7c9.5,0,16.4-5.6,15.3-10.8c-3.7-16.4-61.9-12.8-61.9-57.2c-0.2-5.8,3.3-40,46.6-40
	c39.8,0,49.1,25.9,50.3,39.8c0.2,3.5-1.5,5.6-5,6.4L934.9,788.6z"/>
<path class="st0" d="M1030,817.8c0,7.2-5.8,13.1-13.1,13.1c-7.2,0-13.1-5.9-13.1-13.1c0-7.2,5.9-13.1,13.1-13.1
	C1024.2,804.7,1030,810.5,1030,817.8"/>
<path class="st0" d="M93.6,817.8c0,7.2-5.8,13.1-13.1,13.1c-7.2,0-13.1-5.9-13.1-13.1c0-7.2,5.8-13.1,13.1-13.1
	C87.7,804.7,93.6,810.5,93.6,817.8"/>
<rect x="66.5" y="930.2" class="st0" width="963.2" height="7.8"/>
<rect x="66.5" y="678.2" class="st0" width="963.2" height="7.8"/>
</svg>
