<svg id="Capa_1" data-name="Capa 1" xmlns="http://www.w3.org/2000/svg" viewBox="0 0 500 500"><defs><style>.cls-1{fill:#fefefe;}.cls-2{fill:#f4f4f4;}.cls-3{fill:#f7e02c;}.cls-4{fill:#f3f4f3;}.cls-5{fill:#ecf2ec;}.cls-6{fill:#f2f4f2;}.cls-7{fill:#f1f3f1;}.cls-8{fill:#f0f3f0;}.cls-9{fill:#eff2ee;}.cls-10{fill:#eef2ed;}.cls-11{fill:#eaf0e9;}</style></defs><path class="cls-1" d="M157.88,413.73c4.05-1.42,10.34-3.5,16.54-5.8C199,398.84,223.55,389.81,248,380.5a20.22,20.22,0,0,0,12-25.84,20.74,20.74,0,0,0-26.09-13.09c-8.71,2.91-17.26,6.31-25.87,9.5-20.24,7.49-40.54,14.86-60.7,22.55-8.17,3.11-14.28,14-12.75,21.59C136.8,406.18,145.2,413.64,157.88,413.73Z"/><path class="cls-1" d="M123.11,214.44c-7.48,3-14.26,5.22-20.46,8.52-1.64.87-2.74,5.59-1.87,7.57s4.89,4.47,6.85,4a83.65,83.65,0,0,0,18.53-7.07c1.73-.91,2.77-5.19,2.32-7.58C128.09,217.83,125.09,216.3,123.11,214.44Z"/><path class="cls-2" d="M273.89,22c2.25,2.48,4.46,5,6.77,7.45,10.07,10.65,6.64,27.65-7.09,32.88-30.9,11.77-61.93,23.19-92.92,34.74-16.35,6.09-32.73,12.13-49.07,18.26a21.37,21.37,0,0,1-25.67-8.74c-5.64-9.52-2.34-24.24,7.82-28.54,16-6.8,32.53-12.62,48.89-18.7,29.92-11.12,59.89-22.1,89.78-33.29,1.87-.7,3.26-2.68,4.88-4.06Z"/><path class="cls-2" d="M275.27,476c-3-5.09-8.94-8.13-8.54-15.61.38-6.94,2.81-11.36,9.21-13.77,14.41-5.43,28.77-11,43.2-16.35,23.48-8.73,47-17.26,70.49-26,8.95-3.36,17.63-1,20.9,6.28,3.84,8.54.85,16.94-8.74,20.79-18.33,7.36-37,14-55.49,20.86-18.11,6.69-36.29,13.19-54.36,20-1.66.62-2.82,2.57-4.21,3.9Z"/><path class="cls-2" d="M453.83,305.75c-.66.2-1.71.21-1.9.62-5.42,11.91-17.12,14.57-27.72,18.66C409,330.9,393.6,336.34,378.34,342.1c-14.07,5.3-26.59-1.18-29.94-15.66-2.14-9.24,3.33-19.14,13.07-22.87,16.32-6.24,32.72-12.24,49.09-18.31,5.18-1.91,10.26-4.45,15.61-5.43,9.35-1.7,19.15-.33,24.88,12.35.46,1,1.83,1.68,2.78,2.5Z"/><path class="cls-2" d="M44.12,110.59c1.37-1.36,3-2.53,4.08-4.1C53.2,99,63,94.89,70.85,97.11c8.65,2.43,16.11,12.1,16.17,21,.06,7.88-6.88,16.89-14.89,19.35-9.16,2.82-18.49-.73-23.93-8.89-1.05-1.57-2.71-2.74-4.08-4.09Z"/><path class="cls-3" d="M160.54,195c-5.15-20.46-4.46-21.7,15.42-29.06q77.6-28.71,155.16-57.5c13.21-4.89,18.77-2.3,23.75,11q9.76,26.13,19.63,52.22l14.25,38.57c-.13,10.69-2.39,13.94-12.74,17.78q-80.81,30-161.65,59.84c-12.4,4.58-17.17,2.54-22.94-9.57q-7-18.87-13.93-37.75L167.28,213Q163.91,204,160.54,195Zm200.57-18c-6-16.87-12.06-33.75-18.56-51.92l-12.27,18.57-11.83,16.78-17.33,24.22,36.32,11.09,35.45,11.42ZM193.46,242.14c3,8.78,6,17.55,9.58,27.79l3.44-5.91,36.59-57.86-30-7.11-40.19-11,9.32,23.66Q187.8,226.92,193.46,242.14ZM323.07,126.28q-66.57,24.57-133.14,49.17c-.84.31-1.45,1.23-2.77,2.41L243.45,192c8.63,2.33,17.21,4.91,25.93,6.8a8,8,0,0,0,6.71-2.44c5.64-7.5,10.72-15.42,16-23.19L324,127.49l.63-1.32Zm18.6,85.63c-14.46-4.65-29-9.13-43.35-14.06-4.4-1.52-6.45-.15-8.86,3.37-11.23,16.4-7.43,15.06-27,10-4.44-1.15-6.53-.37-8.85,3.42-10.54,17.33-21.39,34.47-32.1,51.69-.86,1.37-1.54,2.84-2.61,4.85,1.66-.37,2.34-.44,3-.67q62.82-23.25,125.63-46.57a23,23,0,0,0,4-2.44l10-2.45-.28-1.44Z"/><path class="cls-2" d="M157.88,413.73c-12.68-.09-21.08-7.55-23.29-18.52-1.53-7.56,4.58-18.48,12.75-21.59,20.16-7.69,40.46-15.06,60.7-22.55,8.61-3.19,17.16-6.59,25.87-9.5A20.74,20.74,0,0,1,260,354.66a20.22,20.22,0,0,1-12,25.84c-24.46,9.31-49,18.34-73.59,27.43C168.22,410.23,161.93,412.31,157.88,413.73Z"/><path class="cls-4" d="M177.49,240.54q7,18.89,13.93,37.75l-28.07,10.87c1.39-8.7-2.6-12.19-10.76-9.27-6.87,2.46-13.7,5.06-20.52,7.66-8.58,3.26-9.56,7.24-3.52,14-4.67,4.93-17.18,3.45-21.92-3.64-3-4.5-3.92-10.39-5.77-15.66,10.16-5.07,11.17-8.13,5-15l48.6-18.15Z"/><path class="cls-2" d="M388.75,210.24,374.5,171.67C387,167.09,399.4,162.35,412,158c13.05-4.55,24.44.7,28.38,12.7,3.83,11.64-2.08,22.49-14.6,27.06-10.34,3.77-20.6,7.74-31,11.48A33.17,33.17,0,0,1,388.75,210.24Z"/><path class="cls-3" d="M128.55,301.59c-6-6.8-5.06-10.78,3.52-14,6.82-2.6,13.65-5.2,20.52-7.66,8.16-2.92,12.15.57,10.76,9.27Z"/><path class="cls-3" d="M123.11,214.44c2,1.86,5,3.39,5.37,5.42.45,2.39-.59,6.67-2.32,7.58a83.65,83.65,0,0,1-18.53,7.07c-2,.49-5.95-1.94-6.85-4s.23-6.7,1.87-7.57C108.85,219.66,115.63,217.43,123.11,214.44Z"/><path class="cls-3" d="M105.82,267.34c6.21,6.82,5.2,9.88-5,15-2.81.87-5.71,2.63-8.4,2.34s-6.27-2-7.42-4.2c-.91-1.71.59-6.69,2.23-7.39C93.17,270.49,99.6,269.14,105.82,267.34Z"/><path class="cls-5" d="M160.54,195q3.36,9,6.74,18c-6.41-1.87-8.93-6.84-9.45-12.84C157.68,198.54,159.58,196.72,160.54,195Z"/><path class="cls-6" d="M243.45,192l-56.29-14.18c1.32-1.18,1.93-2.1,2.77-2.41q66.56-24.63,133.14-49.17l.95,1.21-31.93,45.72c-1.61-.13-3.41-.8-4.8-.3-13.19,4.69-26.35,9.47-39.41,14.53C246.08,188.13,244.91,190.46,243.45,192Z"/><path class="cls-7" d="M337.44,195.76c1.58-8.34,7.67-12.45,14.73-15.54,2.89-1.27,5.95-2.15,8.94-3.2l11.78,30.16Z"/><path class="cls-8" d="M213,199.05l-30.87,12.66-9.32-23.66Z"/><path class="cls-9" d="M193.46,242.14c10.46,3.65,11.87,12.69,13,21.88L203,269.93C199.51,259.69,196.48,250.92,193.46,242.14Z"/><path class="cls-10" d="M330.28,143.67c4,8.3-.24,14.37-11.83,16.78Z"/><path class="cls-11" d="M351.49,221.48l-9.82-9.57,19.51,5.68.28,1.44Z"/><path class="cls-6" d="M323.07,126.28l1.58-.11-.63,1.32Z"/></svg>