<?xml version="1.0" encoding="utf-8"?>
<!-- Generator: Adobe Illustrator 24.2.3, SVG Export Plug-In . SVG Version: 6.00 Build 0)  -->
<svg version="1.1" id="Capa_1" xmlns="http://www.w3.org/2000/svg" xmlns:xlink="http://www.w3.org/1999/xlink" x="0px" y="0px"
	 viewBox="0 0 907 386" style="enable-background:new 0 0 907 386;" xml:space="preserve">
<style type="text/css">
	.st0{fill:#FFFFFF;}
	.st1{fill:#F3DF00;}
</style>
<g>
	<path class="st0" d="M77.4,36.3v204.6H39.6V36.3H0.2V-0.2h116.7v36.5L77.4,36.3L77.4,36.3z"/>
	<path class="st0" d="M137.4,240.9V-0.2h58c9.9,0,18.6,1.1,25.9,3.4s13.4,5.9,18.2,10.9c4.8,5,8.4,11.4,10.8,19.3s3.6,17.3,3.6,28.4
		v26c0,10.3-2.3,19.3-6.8,27.3s-10.4,14.5-17.6,19.8c3.2,2.2,5.9,4.5,8.1,7c2.2,2.4,4.1,5.3,5.6,8.6c1.5,3.3,2.8,7.2,3.6,11.6
		c0.9,4.5,1.6,9.9,2.1,16.2l2.7,33.3c0.5,6.6,1.7,12.1,3.6,16.8c1.8,4.6,3.7,8.8,5.5,12.5h-39c-0.4-0.9-1-2.2-1.7-4
		c-0.7-1.9-1.5-4-2.3-6.6c-0.8-2.5-1.5-5.3-2.2-8.3c-0.7-3-1.2-6.1-1.5-9.3l-2.9-33.6c-0.5-6-1.6-11.1-3.1-15.1
		c-1.5-4.1-3.4-7.3-5.5-9.8c-2.1-2.4-4.5-4.1-7.1-5.1s-5.1-1.4-7.7-1.4H175v93.2L137.4,240.9L137.4,240.9z M216.4,61.3
		c0-5.1-0.4-9.2-1.3-12.4c-0.9-3.2-2.3-5.8-4-7.7c-1.8-1.9-4-3.2-6.6-3.9c-2.6-0.7-5.6-1-9.1-1H175v75h20c3.6,0,6.7-0.6,9.4-1.8
		c2.7-1.2,4.9-2.9,6.7-5s3.1-4.6,4-7.4c0.9-2.8,1.3-5.9,1.3-9.2L216.4,61.3L216.4,61.3z"/>
	<path class="st0" d="M285.6,240.9V-0.2h101.9v36.5h-64.3V100h53.4v36.4h-53.4v68.1h64.3v36.3L285.6,240.9L285.6,240.9z"/>
	<path class="st0" d="M407.2,240.9V207l65.1-170.7H410V-0.2h104.8v31.5l-66.4,173.2h66.6v36.3L407.2,240.9L407.2,240.9z"/>
</g>
<path class="st1" d="M702.8,99c-13.2-13.3-30.1-20-50.1-20c-19.9,0-34.3,4.7-42.8,13.8l-2.3-1.8c14.7-23,39.7-53,74.4-89.1h-36.4
	c-25.7,29-46.3,54.4-61.3,75.5c-14.9,21-22.5,45.7-22.5,73.4v0.4c0.1,27.9,8,49.9,23.5,65.6c16.2,16.1,36,24.3,58.8,24.3
	c22.9,0,42.7-8.2,58.8-24.4c16.1-16.2,24.3-36,24.3-58.8C727,135.1,718.9,115.2,702.8,99z M682.5,196.6
	c-10.6,10.6-23.5,15.9-38.4,15.9c-15,0-28-5.4-38.6-15.9c-10.6-10.6-16-23.6-16-38.6s5.4-28,16-38.6c10.6-10.6,23.6-15.9,38.6-15.9
	c14.9,0,27.8,5.4,38.4,15.9c10.6,10.6,16,23.6,16,38.6C698.4,173,693,186,682.5,196.6z"/>
<path class="st1" d="M900.2,67.9C900.2,67.9,900.2,67.9,900.2,67.9l-15,0l14.6-2.7c-0.6-4-1.5-7.9-2.6-11.6
	c-9.6-30.8-38.3-53.1-72.3-53.1c-41.8,0-75.8,33.9-75.8,75.8l0,89.1l25.9-24.8l0-64.3c0-27.5,22.3-49.8,49.8-49.8
	c25.7,0,46.8,19.5,49.5,44.4c0.1,0.6,0.3,28.1,0.3,28.1l25.8-24.6l6.8-6.4L900.2,67.9L900.2,67.9z"/>
<path class="st0" d="M874.6,104.4l0,64.3c0,27.5-22.3,49.8-49.8,49.8c-25.7,0-46.8-19.5-49.5-44.4c-0.1-0.6-0.3-28.1-0.3-28.1
	l-25.8,24.6l-6.8,6.4h5.4h1.8h15l-14.6,2.7c0.6,4,1.5,7.9,2.6,11.6c9.6,30.8,38.3,53.1,72.3,53.1c41.8,0,75.8-33.9,75.8-75.8V80
	L874.6,104.4z"/>
<g>
	<path class="st0" d="M241.3,354.2c0-2.5,0.6-4.2,1.8-5.4c1.2-1.1,3.1-1.7,5.6-1.7c2.7,0,4.6,0.6,5.8,1.7s1.8,2.9,1.8,5.4
		c0,2.4-0.6,4.1-1.8,5.3c-1.2,1.1-3.1,1.7-5.8,1.7c-2.6,0-4.4-0.6-5.6-1.7C241.9,358.4,241.3,356.6,241.3,354.2z"/>
	<path class="st0" d="M321.9,366c0,3.4-0.4,6.4-1.1,9s-1.9,4.8-3.6,6.6s-3.7,3.1-6.2,4s-5.5,1.4-9,1.4c-3.9,0-7.1-0.5-9.7-1.4
		s-4.6-2.4-6.1-4.2c-1.5-1.8-2.6-4.1-3.2-6.8c-0.6-2.7-0.9-5.7-0.9-9.1V360h12.7v5.5c0,1.5,0.1,2.9,0.3,4c0.2,1.1,0.6,2.1,1.1,2.9
		c0.5,0.8,1.2,1.4,2.2,1.7s2.1,0.6,3.5,0.6c1.4,0,2.6-0.2,3.5-0.6c0.9-0.4,1.6-1,2.2-1.8c0.5-0.8,0.9-1.7,1.2-2.7
		c0.2-1.1,0.4-2.2,0.4-3.5v-0.6c0-1.5-0.1-2.9-0.2-4.2s-0.5-2.4-0.9-3.4c-0.5-1-1.1-1.9-1.8-2.8c-0.8-0.9-1.8-1.7-3-2.5l-7.8-5
		c-2.7-1.8-4.9-3.4-6.5-5c-1.6-1.6-2.9-3.3-3.8-5s-1.5-3.7-1.8-5.8s-0.5-4.5-0.5-7.1v-1.5c0-7,1.7-12.2,5-15.5
		c3.4-3.3,8.2-4.9,14.6-4.9c6.6,0,11.5,1.7,14.6,5.1c3.1,3.4,4.7,8.6,4.7,15.4v6.5h-12.8l0-7.2c0-1.1-0.1-2.1-0.4-3
		c-0.3-0.9-0.6-1.7-1.1-2.4c-0.5-0.7-1.2-1.2-2-1.5c-0.9-0.4-1.9-0.5-3-0.5c-1.3,0-2.3,0.2-3.2,0.6c-0.9,0.4-1.6,1-2.1,1.8
		c-0.5,0.8-0.9,1.7-1.1,2.7s-0.3,2.2-0.3,3.4l0,1.6c0,2.1,0.5,4.1,1.5,6c1,1.9,2.5,3.4,4.5,4.6l7,4.1c2.6,1.5,4.7,3.1,6.4,4.8
		s3,3.5,4,5.4c1,1.9,1.7,4,2.1,6.1c0.4,2.2,0.7,4.6,0.8,7.1L321.9,366L321.9,366z"/>
	<path class="st0" d="M370.1,316.3V386h-12.8v-69.7h-13.4v-12.4h39.7v12.4H370.1z"/>
	<path class="st0" d="M446.9,303.9V366c0,3.2-0.3,6-0.9,8.6s-1.6,4.8-3.1,6.6c-1.5,1.8-3.5,3.3-6,4.3c-2.5,1-5.8,1.5-9.8,1.5
		c-4,0-7.3-0.5-9.8-1.5c-2.5-1-4.6-2.4-6-4.3c-1.5-1.8-2.5-4-3.1-6.6c-0.6-2.6-0.9-5.5-0.9-8.6v-62.1H420v62c0,1.3,0.1,2.5,0.2,3.6
		c0.1,1.1,0.4,2,0.9,2.8c0.5,0.8,1.2,1.4,2.1,1.8c0.9,0.5,2.2,0.7,3.8,0.7s2.9-0.2,3.8-0.7c0.9-0.5,1.6-1.1,2.1-1.8
		c0.5-0.8,0.8-1.7,0.9-2.8c0.1-1.1,0.2-2.3,0.2-3.6v-62H446.9z"/>
	<path class="st0" d="M495.7,303.9c3.9,0,7.2,0.6,9.7,1.9c2.6,1.2,4.6,2.8,6,4.9c1.5,2.1,2.5,4.5,3,7.3c0.6,2.8,0.9,5.7,0.9,8.9
		v36.3c0,3.2-0.3,6.1-0.9,8.9c-0.6,2.8-1.6,5.2-3.1,7.3c-1.5,2.1-3.5,3.7-6,4.9c-2.6,1.2-5.8,1.8-9.8,1.8h-19.4v-82.1H495.7z
		 M495.9,373.6c2.6-0.1,4.3-1,5.3-2.9s1.5-4.4,1.5-7.7v-36.2c0-1.6-0.1-3-0.3-4.3c-0.2-1.3-0.6-2.4-1.1-3.3
		c-0.5-0.9-1.2-1.6-2.1-2.1c-0.9-0.5-1.9-0.8-3.2-0.8H489v57.3L495.9,373.6L495.9,373.6z"/>
	<path class="st0" d="M543.9,386v-82.1h12.8V386L543.9,386L543.9,386z"/>
	<path class="st0" d="M604.9,302.8C604.9,302.8,605,302.8,604.9,302.8c4.1,0,7.4,0.6,10,1.8s4.6,2.9,6,5c1.5,2.1,2.5,4.6,3,7.4
		s0.8,5.8,0.8,8.9V364c0,3.1-0.3,6.1-0.8,8.9c-0.6,2.8-1.6,5.3-3,7.4c-1.5,2.1-3.5,3.8-6.1,5c-2.6,1.2-5.9,1.8-9.8,1.8l0,0v0
		c-4,0-7.3-0.6-9.9-1.9s-4.6-2.9-6.1-5s-2.5-4.6-3-7.4s-0.8-5.8-0.8-8.9v-38.1c0-3.1,0.3-6.1,0.8-8.9s1.6-5.2,3.1-7.3
		c1.5-2.1,3.5-3.8,6.1-5S600.9,302.8,604.9,302.8L604.9,302.8z M604.9,374.6c0,0,0.1,0,0.1,0s0.1,0,0.1,0c1.5,0,2.7-0.4,3.6-1
		s1.6-1.4,2.1-2.4s0.8-2.1,1-3.4c0.1-1.3,0.2-2.6,0.2-4v-38c0-1.3-0.1-2.6-0.2-3.9c-0.1-1.3-0.4-2.4-0.9-3.5c-0.5-1-1.2-1.8-2.1-2.4
		c-0.9-0.6-2.2-0.9-3.8-0.9c-0.1,0-0.2,0-0.3,0c-1.5,0-2.7,0.4-3.6,1c-0.9,0.6-1.6,1.4-2,2.4s-0.8,2.1-0.9,3.4
		c-0.1,1.3-0.2,2.6-0.2,4v38c0,1.3,0.1,2.6,0.2,3.9c0.1,1.3,0.4,2.4,0.9,3.5c0.5,1,1.2,1.8,2.1,2.4
		C602,374.3,603.3,374.6,604.9,374.6z"/>
	<path class="st0" d="M651.1,354.2c0-2.5,0.6-4.2,1.8-5.4s3.1-1.7,5.6-1.7c2.7,0,4.6,0.6,5.8,1.7s1.8,2.9,1.8,5.4
		c0,2.4-0.6,4.1-1.8,5.3s-3.1,1.7-5.8,1.7c-2.5,0-4.4-0.6-5.6-1.7S651.1,356.6,651.1,354.2z"/>
</g>
</svg>
