<?xml version="1.0" encoding="utf-8"?>
<!-- Generator: Adobe Illustrator 24.2.3, SVG Export Plug-In . SVG Version: 6.00 Build 0)  -->
<svg version="1.1" id="Capa_1" xmlns="http://www.w3.org/2000/svg" xmlns:xlink="http://www.w3.org/1999/xlink" x="0px" y="0px"
	 viewBox="0 0 907 386" style="enable-background:new 0 0 907 386;" xml:space="preserve">
<style type="text/css">
	.st0{fill:#F3DF00;}
</style>
<g>
	<g>
		<g>
			<path d="M77.36,36.31v204.6H39.64V36.31H0.18V-0.15h116.65v36.45H77.36z"/>
			<path d="M137.42,240.91V-0.15h58c9.93,0,18.57,1.14,25.91,3.41s13.42,5.92,18.23,10.93c4.81,5.02,8.4,11.44,10.78,19.26
				c2.38,7.82,3.57,17.27,3.57,28.37v25.99c0,10.25-2.27,19.33-6.82,27.26s-10.41,14.53-17.59,19.81c3.17,2.22,5.87,4.54,8.08,6.97
				c2.22,2.43,4.09,5.28,5.63,8.56c1.53,3.28,2.75,7.16,3.64,11.65c0.9,4.49,1.61,9.91,2.14,16.24l2.69,33.28
				c0.53,6.55,1.72,12.15,3.56,16.8c1.85,4.65,3.67,8.82,5.47,12.52h-38.99c-0.43-0.85-1.01-2.19-1.74-4.04
				c-0.74-1.85-1.5-4.04-2.3-6.58c-0.79-2.54-1.54-5.31-2.22-8.32c-0.69-3.01-1.19-6.1-1.5-9.27l-2.85-33.6
				c-0.53-6.02-1.56-11.07-3.09-15.14c-1.53-4.07-3.35-7.31-5.47-9.75c-2.12-2.43-4.47-4.15-7.06-5.15c-2.59-1-5.15-1.45-7.68-1.35
				h-12.84v93.19H137.42z M216.35,61.34c0-5.07-0.45-9.22-1.34-12.44c-0.9-3.22-2.25-5.78-4.04-7.69c-1.8-1.9-3.99-3.19-6.58-3.88
				c-2.59-0.69-5.63-1.03-9.11-1.03h-20.29v74.96h19.97c3.59,0,6.74-0.61,9.43-1.82c2.7-1.21,4.92-2.88,6.66-4.99
				c1.74-2.11,3.06-4.6,3.96-7.45c0.9-2.85,1.34-5.92,1.34-9.19V61.34z"/>
			<path d="M285.61,240.91V-0.15h101.91v36.45h-64.34v63.71h53.41v36.45h-53.41v68.15h64.34v36.29H285.61z"/>
			<path d="M407.16,240.91v-33.92L472.3,36.31h-62.28V-0.15h104.75v31.54l-66.4,173.22h66.56v36.29H407.16z"/>
		</g>
		<path class="st0" d="M702.77,98.98c-13.23-13.26-30.1-19.98-50.13-19.98c-19.9,0-34.31,4.66-42.8,13.84l-2.3-1.78
			c14.72-22.99,39.74-52.95,74.4-89.1h-36.37c-25.65,28.96-46.28,54.37-61.34,75.53c-14.92,21.01-22.49,45.69-22.49,73.36v0.45
			c0.1,27.88,8.01,49.94,23.53,65.58c16.18,16.13,35.95,24.3,58.75,24.3c22.89,0,42.66-8.2,58.76-24.38
			c16.1-16.18,24.26-35.97,24.26-58.8C727.04,135.07,718.87,115.21,702.77,98.98z M682.46,196.59
			c-10.59,10.57-23.53,15.92-38.44,15.92c-15.01,0-27.99-5.36-38.59-15.93c-10.59-10.57-15.97-23.55-15.97-38.58
			c0-15.03,5.37-28.02,15.97-38.58c10.59-10.57,23.58-15.92,38.59-15.92c14.91,0,27.84,5.36,38.44,15.92
			c10.6,10.57,15.97,23.56,15.97,38.59C698.43,173.03,693.05,186.01,682.46,196.59z"/>
		<g>
			<path class="st0" d="M900.15,67.9C900.15,67.9,900.15,67.89,900.15,67.9l-14.95-0.01l14.62-2.73c-0.58-3.98-1.46-7.86-2.63-11.62
				c-9.62-30.79-38.35-53.13-72.31-53.13c-41.85,0-75.77,33.92-75.77,75.77l0.03,89.11l25.92-24.77l0.03-64.34
				c0-27.46,22.34-49.79,49.79-49.79c25.65,0,46.83,19.49,49.51,44.44c0.06,0.55,0.29,28.08,0.29,28.08l25.79-24.64l6.79-6.37
				H900.15z"/>
			<path d="M874.6,104.4l-0.03,64.34c0,27.46-22.34,49.79-49.79,49.79c-25.65,0-46.83-19.49-49.51-44.44
				c-0.06-0.55-0.29-28.08-0.29-28.08l-25.79,24.64l-6.79,6.37h5.36h1.75h14.96l-14.63,2.73c0.58,3.98,1.46,7.87,2.63,11.62
				c9.62,30.79,38.35,53.13,72.31,53.13c41.85,0,75.77-33.92,75.77-75.77V80.02L874.6,104.4z"/>
		</g>
	</g>
	<g>
		<path d="M241.32,354.24c0-2.45,0.6-4.24,1.81-5.37c1.2-1.13,3.08-1.7,5.64-1.7c2.7,0,4.64,0.57,5.83,1.7
			c1.19,1.13,1.78,2.92,1.78,5.37c0,2.38-0.6,4.13-1.78,5.26c-1.19,1.13-3.13,1.7-5.83,1.7c-2.56,0-4.44-0.57-5.64-1.7
			C241.93,358.37,241.32,356.62,241.32,354.24z"/>
		<path d="M321.93,366.05c0,3.38-0.38,6.38-1.13,8.99c-0.75,2.61-1.94,4.8-3.56,6.58c-1.62,1.78-3.68,3.13-6.18,4.05
			s-5.5,1.38-8.99,1.38c-3.89,0-7.11-0.47-9.69-1.43s-4.62-2.35-6.15-4.18c-1.53-1.84-2.6-4.08-3.21-6.75
			c-0.61-2.66-0.92-5.7-0.92-9.12v-5.61h12.73v5.5c0,1.51,0.1,2.85,0.3,4c0.2,1.15,0.56,2.11,1.08,2.89
			c0.52,0.77,1.24,1.35,2.16,1.73c0.92,0.38,2.09,0.57,3.53,0.57c1.41,0,2.57-0.22,3.48-0.65c0.92-0.43,1.64-1.03,2.19-1.78
			c0.54-0.76,0.92-1.67,1.16-2.73c0.23-1.06,0.35-2.22,0.35-3.48v-0.65c0-1.55-0.08-2.94-0.24-4.18c-0.16-1.24-0.47-2.37-0.92-3.37
			c-0.45-1.01-1.06-1.93-1.84-2.78c-0.77-0.85-1.77-1.67-3-2.46l-7.77-5.02c-2.7-1.76-4.87-3.44-6.5-5.05
			c-1.64-1.6-2.9-3.28-3.78-5.04s-1.47-3.68-1.78-5.75c-0.31-2.07-0.46-4.45-0.46-7.15v-1.46c0-7.05,1.68-12.2,5.05-15.46
			c3.36-3.25,8.23-4.88,14.59-4.88c6.62,0,11.49,1.71,14.6,5.12c3.11,3.42,4.67,8.56,4.67,15.43v6.47h-12.79l-0.05-7.18
			c0-1.11-0.13-2.13-0.38-3.05c-0.25-0.91-0.63-1.71-1.13-2.37c-0.51-0.67-1.18-1.18-2.03-1.54c-0.85-0.36-1.86-0.54-3.05-0.54
			c-1.26,0-2.32,0.21-3.19,0.62c-0.86,0.42-1.56,1-2.08,1.75c-0.52,0.76-0.9,1.66-1.13,2.7c-0.23,1.04-0.33,2.18-0.29,3.4l0.05,1.57
			c0.04,2.12,0.55,4.13,1.54,6.04c0.99,1.91,2.47,3.44,4.45,4.59l6.96,4.1c2.56,1.55,4.68,3.15,6.37,4.83
			c1.69,1.68,3.04,3.46,4.05,5.37c1.01,1.91,1.73,3.96,2.15,6.15c0.43,2.2,0.69,4.57,0.76,7.12V366.05z"/>
		<path d="M370.15,316.3v69.67h-12.84V316.3h-13.44v-12.41h39.72v12.41H370.15z"/>
		<path d="M446.87,303.89V366c0,3.17-0.29,6.04-0.87,8.63c-0.58,2.59-1.6,4.8-3.08,6.63c-1.47,1.84-3.48,3.26-6.04,4.26
			c-2.55,1.01-5.81,1.51-9.77,1.51c-3.99,0-7.26-0.5-9.82-1.51c-2.55-1.01-4.57-2.43-6.04-4.26c-1.47-1.84-2.5-4.05-3.08-6.63
			c-0.57-2.59-0.86-5.47-0.86-8.63v-62.11h12.73v61.95c0,1.29,0.06,2.48,0.19,3.56c0.12,1.08,0.43,2.01,0.92,2.78
			c0.48,0.78,1.2,1.39,2.13,1.84c0.94,0.45,2.21,0.68,3.83,0.68s2.89-0.22,3.8-0.68c0.92-0.45,1.62-1.06,2.11-1.84
			c0.48-0.77,0.79-1.7,0.92-2.78c0.12-1.08,0.19-2.26,0.19-3.56v-61.95H446.87z"/>
		<path d="M495.69,303.89c3.92,0.04,7.16,0.65,9.71,1.86c2.56,1.21,4.56,2.84,6.02,4.91c1.46,2.07,2.47,4.49,3.05,7.26
			c0.57,2.77,0.86,5.74,0.86,8.9v36.27c0,3.17-0.29,6.13-0.86,8.9c-0.58,2.77-1.6,5.19-3.08,7.26c-1.47,2.07-3.49,3.71-6.04,4.91
			c-2.56,1.21-5.83,1.81-9.82,1.81h-19.37v-82.08H495.69z M495.85,373.61c2.56-0.07,4.32-1.04,5.29-2.91
			c0.97-1.87,1.46-4.43,1.46-7.67v-36.21c0-1.58-0.11-3.01-0.32-4.29c-0.22-1.27-0.58-2.37-1.1-3.29c-0.53-0.92-1.22-1.63-2.08-2.13
			c-0.87-0.5-1.94-0.77-3.24-0.81h-6.9v57.31H495.85z"/>
		<path d="M543.86,385.97v-82.08h12.79v82.08H543.86z"/>
		<path d="M604.93,302.81c0-0.04,0.02-0.05,0.05-0.05c4.03,0,7.33,0.62,9.9,1.86c2.57,1.24,4.59,2.91,6.04,5.02
			c1.46,2.11,2.46,4.56,3.02,7.37c0.56,2.81,0.84,5.76,0.84,8.85v38.1c0,3.13-0.28,6.1-0.84,8.9c-0.56,2.81-1.57,5.26-3.05,7.37
			c-1.48,2.1-3.5,3.77-6.07,4.99c-2.57,1.23-5.86,1.84-9.85,1.84l-0.05-0.05v0.05c-4.03,0-7.33-0.62-9.9-1.86s-4.59-2.91-6.07-5.02
			c-1.48-2.11-2.5-4.56-3.05-7.37s-0.84-5.76-0.84-8.85v-38.1c0-3.13,0.28-6.09,0.84-8.88c0.56-2.79,1.58-5.23,3.08-7.34
			c1.49-2.1,3.53-3.77,6.1-5.02s5.85-1.86,9.85-1.86V302.81z M604.93,374.64c0.04,0,0.07,0.01,0.11,0.03
			c0.04,0.02,0.07,0.03,0.11,0.03c1.51-0.04,2.71-0.36,3.61-0.97s1.59-1.41,2.08-2.4c0.49-0.99,0.8-2.13,0.95-3.43
			c0.14-1.29,0.22-2.62,0.22-3.99v-37.99c0-1.33-0.06-2.64-0.19-3.94c-0.13-1.29-0.43-2.44-0.92-3.45c-0.48-1.01-1.19-1.81-2.1-2.43
			c-0.92-0.61-2.19-0.92-3.8-0.92c-0.11,0-0.2-0.02-0.27-0.05c-1.51,0.04-2.72,0.36-3.61,0.97c-0.9,0.61-1.58,1.41-2.05,2.4
			c-0.47,0.99-0.77,2.13-0.92,3.43c-0.14,1.29-0.22,2.62-0.22,3.99v37.99c0,1.33,0.06,2.64,0.19,3.94c0.12,1.29,0.43,2.44,0.92,3.45
			c0.48,1.01,1.19,1.81,2.1,2.43C602.05,374.33,603.31,374.64,604.93,374.64z"/>
		<path d="M651.06,354.24c0-2.45,0.6-4.24,1.81-5.37c1.21-1.13,3.09-1.7,5.64-1.7c2.7,0,4.64,0.57,5.83,1.7
			c1.19,1.13,1.78,2.92,1.78,5.37c0,2.38-0.59,4.13-1.78,5.26c-1.19,1.13-3.13,1.7-5.83,1.7c-2.55,0-4.43-0.57-5.64-1.7
			C651.66,358.37,651.06,356.62,651.06,354.24z"/>
	</g>
</g>
</svg>
