<?xml version="1.0" encoding="utf-8"?>
<!-- Generator: Adobe Illustrator 24.2.3, SVG Export Plug-In . SVG Version: 6.00 Build 0)  -->
<svg version="1.1" id="Capa_1" xmlns="http://www.w3.org/2000/svg" xmlns:xlink="http://www.w3.org/1999/xlink" x="0px" y="0px"
	 viewBox="0 0 1935.6 1053.2" style="enable-background:new 0 0 1935.6 1053.2;" xml:space="preserve">
<style type="text/css">
	.st0{fill:#FFF8A4;}
	.st1{fill:url(#SVGID_1_);}
	.st2{fill:url(#SVGID_2_);}
	.st3{fill:url(#SVGID_3_);}
	.st4{fill:url(#SVGID_4_);}
	.st5{fill:url(#SVGID_5_);}
	.st6{fill:url(#SVGID_6_);}
	.st7{fill:url(#SVGID_7_);}
	.st8{fill:url(#SVGID_8_);}
	.st9{fill:url(#SVGID_9_);}
	.st10{fill:url(#SVGID_10_);}
	.st11{fill:url(#SVGID_11_);}
	.st12{fill:url(#SVGID_12_);}
	.st13{fill:url(#SVGID_13_);}
	.st14{fill:url(#SVGID_14_);}
	.st15{fill:url(#SVGID_15_);}
	.st16{fill:url(#SVGID_16_);}
	.st17{fill:url(#SVGID_17_);}
	.st18{fill:url(#SVGID_18_);}
	.st19{fill:url(#SVGID_19_);}
	.st20{fill:url(#SVGID_20_);}
	.st21{fill:url(#SVGID_21_);}
	.st22{fill:url(#SVGID_22_);}
	.st23{fill:url(#SVGID_23_);}
	.st24{fill:url(#SVGID_24_);}
	.st25{fill:url(#SVGID_25_);}
	.st26{fill:url(#SVGID_26_);}
	.st27{fill:url(#SVGID_27_);}
	.st28{fill:url(#SVGID_28_);}
	.st29{fill:url(#SVGID_29_);}
	.st30{fill:url(#SVGID_30_);}
	.st31{fill:url(#SVGID_31_);}
	.st32{fill:url(#SVGID_32_);}
	.st33{fill:url(#SVGID_33_);}
	.st34{fill:url(#SVGID_34_);}
	.st35{fill:url(#SVGID_35_);}
	.st36{fill:url(#SVGID_36_);}
	.st37{fill:url(#SVGID_37_);}
	.st38{fill:#F05B5C;}
	.st39{fill:#39393B;}
	.st40{fill:#FEE4BB;}
	.st41{fill:url(#SVGID_38_);}
	.st42{fill:url(#SVGID_39_);}
	.st43{fill:url(#SVGID_40_);}
	.st44{fill:#3E5DA9;}
	.st45{fill:url(#SVGID_41_);}
	.st46{fill:url(#SVGID_42_);}
	.st47{fill:url(#SVGID_43_);}
	.st48{fill:url(#SVGID_44_);}
	.st49{fill:url(#SVGID_45_);}
	.st50{fill:url(#SVGID_46_);}
	.st51{fill:#74CAC3;}
	.st52{fill-rule:evenodd;clip-rule:evenodd;fill:url(#SVGID_47_);}
	.st53{fill:url(#SVGID_48_);}
	.st54{fill:url(#SVGID_49_);}
	.st55{fill:url(#SVGID_50_);}
	.st56{fill:url(#SVGID_51_);}
	.st57{fill:#383867;}
	.st58{fill:url(#SVGID_52_);}
	.st59{fill:url(#SVGID_53_);}
	.st60{fill-rule:evenodd;clip-rule:evenodd;fill:url(#SVGID_54_);}
	.st61{fill:url(#SVGID_55_);}
	.st62{fill:url(#SVGID_56_);}
	.st63{fill:url(#SVGID_57_);}
	.st64{fill:url(#SVGID_58_);}
	.st65{fill:url(#SVGID_59_);}
	.st66{fill:url(#SVGID_60_);}
	.st67{fill:url(#SVGID_61_);}
	.st68{fill:none;}
</style>
<path class="st0" d="M1767.4,20.3c-8-0.2-22.2,1.9-29.3,5c-20.3,8.8-16,36-3,52.4s32,31.3,32.7,51.2c1.1,36.1-54.2,48.9-95.2,46.3
	c-94.6-6.1-186.9-31.9-281.8-33.7s-228.1,27.8-272.4,101.5c-19.4,32.3-22.7,70.9-13.1,106.5c15.3,57,45.2,101,30.7,158.2
	c-21.9,86.2-129,116-172.2,129.4c-80.7,25-149.5,73.2-211,125.5c-70,59.4-136.4,133.8-134.5,219.2c0.6,27.4,19.1,54.4,31.6,78.4
	h1285.8V59.2C1935.6,59.2,1894.4,24.1,1767.4,20.3z"/>
<linearGradient id="SVGID_1_" gradientUnits="userSpaceOnUse" x1="1190.4468" y1="-468.4686" x2="1501.1864" y2="-468.4686" gradientTransform="matrix(0.9167 0.3995 0.3995 -0.9167 -132.13 -54.246)">
	<stop  offset="0" style="stop-color:#75A67E"/>
	<stop  offset="1" style="stop-color:#383865"/>
</linearGradient>
<path class="st1" d="M779.6,833.3c12.8,1.8,25.3,6.5,37.2,11.7c35.3,15.3,68.9,37.4,96.5,64.3c13,12.7,25,26.9,33.2,43.2
	c3.6,7,6.2,14.6,7.7,22.3c0.7,3.8,3.5,32.6,8.4,34.8c16.6,7.5,40.9-4.7,59.1-6c7.7-0.5,15.8-1.2,22-5.6c14.3-10,10.4-36,5.9-50.2
	c-3.4-10.8-10.9-20.8-21.5-24.5c-9.4-3.2-20.2-1.3-29.1-5.6c-20.8-10.2-17.4-46-38.5-55.4c-12.1-5.4-26.5,1-39.4-2.3
	c-15.2-3.9-22.4-20.6-34-31.2C857.4,801.9,811.7,811,779.6,833.3z"/>
<linearGradient id="SVGID_2_" gradientUnits="userSpaceOnUse" x1="2674.8384" y1="-641.8401" x2="2985.6384" y2="-641.8401" gradientTransform="matrix(-0.36 0.93 0.93 0.36 3444.6086 -1828.9243)">
	<stop  offset="0" style="stop-color:#75A67E"/>
	<stop  offset="1" style="stop-color:#383865"/>
</linearGradient>
<path class="st2" d="M1898.6,442.3c-1.2,12.9-5.3,25.6-9.9,37.7c-13.6,36-34,70.6-59.6,99.5c-12,13.6-25.6,26.3-41.5,35.2
	c-6.9,4-14.3,6.9-22,8.8c-3.8,0.9-32.4,5-34.4,10c-6.7,16.9,6.7,40.7,8.8,58.7c0.9,7.6,2,15.7,6.7,21.8c10.7,13.8,36.4,8.7,50.4,3.5
	c10.6-3.9,20.3-11.9,23.5-22.7c2.8-9.5,0.3-20.2,4.2-29.4c9.2-21.2,45.1-19.5,53.5-41.1c4.8-12.4-2.3-26.5,0.4-39.4
	c3.2-15.3,19.6-23.3,29.5-35.4C1933.7,518.5,1922.4,473.3,1898.6,442.3z"/>
<linearGradient id="SVGID_3_" gradientUnits="userSpaceOnUse" x1="1090.3722" y1="712.5561" x2="1173.2722" y2="712.5561" gradientTransform="matrix(0.9002 -0.4355 -0.4355 -0.9002 299.343 1899.7848)">
	<stop  offset="0" style="stop-color:#75A67E"/>
	<stop  offset="1" style="stop-color:#383865"/>
</linearGradient>
<path class="st3" d="M1111.6,921.5c5.9,15.2,8.5,62.7,4,103.7c6.2-2.2,12.3-4.4,18.4-6.6c-0.1-38.9-4.5-89-9.2-102.6
	c-12.1-34.5-31.6-67.3-60.3-90c-10.3-8.1-21.7-14.9-32.4-22.5c-62-44.2-99.4-121.1-95.7-197.3c0.9-19.1,4.2-38.7-1-57.1
	c-5.3-19-20.3-33.5-36.1-45.5l-2.1,3.4c-18.6,30.2-16.2,67.1,0.8,98.2c9.1,16.8,23,31.1,28.7,49.3c2.3,7.5,3.2,15.5,4,23.3
	c4.2,41,21.4,73.1,48.6,103.9C1023.6,831.9,1080.5,841.6,1111.6,921.5z"/>
<linearGradient id="SVGID_4_" gradientUnits="userSpaceOnUse" x1="1107.2272" y1="848.1094" x2="1186.7494" y2="848.1094" gradientTransform="matrix(0.9002 -0.4355 -0.4355 -0.9002 299.343 1899.7848)">
	<stop  offset="0" style="stop-color:#75A67E"/>
	<stop  offset="1" style="stop-color:#383865"/>
</linearGradient>
<path class="st4" d="M949.7,694.5c-0.2-10.3,17.4-26.6,21-31.7c15.7-22.1,16.4-59.5,7.3-85.1c-22.4,17-36.8,42.4-40,70.3l4.5,38.9
	L949.7,694.5z"/>
<linearGradient id="SVGID_5_" gradientUnits="userSpaceOnUse" x1="1106.1121" y1="789.8461" x2="1178.802" y2="789.8461" gradientTransform="matrix(0.9002 -0.4355 -0.4355 -0.9002 299.343 1899.7848)">
	<stop  offset="0" style="stop-color:#75A67E"/>
	<stop  offset="1" style="stop-color:#383865"/>
</linearGradient>
<path class="st5" d="M963.8,724.9c13.6,0.3,20.2-5.5,28-15c7.9-9.8,10.8-22.7,12.4-35.1c0.9-7,1.5-14,1.8-21.1
	c-17.4,6.2-52.9,20.7-55.5,43.1l6.3,22.3C956.9,719.1,961.9,724.9,963.8,724.9z"/>
<linearGradient id="SVGID_6_" gradientUnits="userSpaceOnUse" x1="1045.0566" y1="834.0167" x2="1101.3616" y2="834.0167" gradientTransform="matrix(0.9002 -0.4355 -0.4355 -0.9002 299.343 1899.7848)">
	<stop  offset="0" style="stop-color:#75A67E"/>
	<stop  offset="1" style="stop-color:#383865"/>
</linearGradient>
<path class="st6" d="M930.4,675.8c-1.7-7.2-12-14.3-17.8-15.8c-27.7-7-45.3-3.8-51.5-0.4C867,681,889.6,696,895.2,700
	c11.4,8,28.8,9.8,41,7c0,0,0.8-13,0.8-13.7S930.4,675.8,930.4,675.8z"/>
<linearGradient id="SVGID_7_" gradientUnits="userSpaceOnUse" x1="1020.0565" y1="778.877" x2="1095.9114" y2="778.877" gradientTransform="matrix(0.9002 -0.4355 -0.4355 -0.9002 299.343 1899.7848)">
	<stop  offset="0" style="stop-color:#75A67E"/>
	<stop  offset="1" style="stop-color:#383865"/>
</linearGradient>
<path class="st7" d="M958.4,753.9c-17.8,15.5-59.9,4.2-74.7-9.9c-7-6.6-14.3-11-19.6-19c11.2-10.6,30.9-19,46.1-16.7
	c9.3,1.3,29.5,8.9,32.8,17.8c0,0,10.3,7.9,11.3,11.2S958.4,753.9,958.4,753.9z"/>
<linearGradient id="SVGID_8_" gradientUnits="userSpaceOnUse" x1="1003.3417" y1="690.6998" x2="1139.6438" y2="690.6998" gradientTransform="matrix(0.9002 -0.4355 -0.4355 -0.9002 299.343 1899.7848)">
	<stop  offset="0" style="stop-color:#75A67E"/>
	<stop  offset="1" style="stop-color:#383865"/>
</linearGradient>
<path class="st8" d="M970.4,771.3c-30.6-14.8-80.5-5.9-98.2,8.6c13.1,17.9,30.1,31.1,52,34.9c40.2,6.9,82.4-6.6,83.8-5.8
	c-24.7,4.2-66.1,19.7-81.1,46.3c46.5,24.7,101.2,10.2,122.9-15.4c0,0-1.1-9.3-2.2-10.4S970.4,771.3,970.4,771.3z"/>
<linearGradient id="SVGID_9_" gradientUnits="userSpaceOnUse" x1="1025.251" y1="593.0934" x2="1159.1182" y2="593.0934" gradientTransform="matrix(0.9002 -0.4355 -0.4355 -0.9002 299.343 1899.7848)">
	<stop  offset="0" style="stop-color:#75A67E"/>
	<stop  offset="1" style="stop-color:#383865"/>
</linearGradient>
<path class="st9" d="M1082.7,868.1c-12.8,41.1-51,53.9-74.7,53.2c-13.5-0.4-31.8-1.4-44-1.8c4.9-23,21-43.5,42.4-53.3
	c8.3-3.8,17.2-5.6,25.5-9.7c0,0,19.1-13.7,40.7-5.2C1090.9,858.6,1082.7,868.1,1082.7,868.1z"/>
<linearGradient id="SVGID_10_" gradientUnits="userSpaceOnUse" x1="1113.2876" y1="731.6854" x2="1160.2147" y2="731.6854" gradientTransform="matrix(0.9002 -0.4355 -0.4355 -0.9002 299.343 1899.7848)">
	<stop  offset="0" style="stop-color:#75A67E"/>
	<stop  offset="1" style="stop-color:#383865"/>
</linearGradient>
<path class="st10" d="M1012.4,787.8c-1.7-4.2,2.6-12.1,4.8-18c3.3-9,5.3-18.4,5.7-28c0.2-4.4,0.1-8.9-1.4-13.1
	c-2-5.5-6.3-9.9-10.5-14l-12.2-12.2c-16.1,11.3-22.4,33-16.8,51.9c0.2,0.6,11.9,16.6,13.4,19.6S1013.4,790.1,1012.4,787.8z"/>
<linearGradient id="SVGID_11_" gradientUnits="userSpaceOnUse" x1="1136.8506" y1="682.6343" x2="1176.8462" y2="682.6343" gradientTransform="matrix(0.9002 -0.4355 -0.4355 -0.9002 299.343 1899.7848)">
	<stop  offset="0" style="stop-color:#75A67E"/>
	<stop  offset="1" style="stop-color:#383865"/>
</linearGradient>
<path class="st11" d="M1061.1,823.9c2.6-2.4,7.9-12.7,8.2-14.8c1.9-11-0.3-20.2-5-30.2s-11.9-18.5-20.2-25.6
	c-5.7-4.9-12-9.2-16.7-15.2c-11.5,21.3-8.1,50.3,7.9,68l12.7,17.5L1061.1,823.9z"/>
<linearGradient id="SVGID_12_" gradientUnits="userSpaceOnUse" x1="1163.5094" y1="635.1674" x2="1204.7574" y2="635.1674" gradientTransform="matrix(0.9002 -0.4355 -0.4355 -0.9002 299.343 1899.7848)">
	<stop  offset="0" style="stop-color:#75A67E"/>
	<stop  offset="1" style="stop-color:#383865"/>
</linearGradient>
<path class="st12" d="M1098.8,863.5c0.1-8.5,4.3-15.1,7.6-23c8.2-19.8,1.5-43.6-12.8-59.6c-5.6-6.3-12.4-11.7-16.1-19.3
	c-6.9,7.4-7.6,18.5-7.4,28.6c0.3,20.7,3.7,41.6,17.3,57.2c0,0,0.8,12.6,1.8,13.1S1098.8,863.5,1098.8,863.5z"/>
<linearGradient id="SVGID_13_" gradientUnits="userSpaceOnUse" x1="1166.7225" y1="574.9066" x2="1215.7225" y2="574.9066" gradientTransform="matrix(0.9002 -0.4355 -0.4355 -0.9002 299.343 1899.7848)">
	<stop  offset="0" style="stop-color:#75A67E"/>
	<stop  offset="1" style="stop-color:#383865"/>
</linearGradient>
<path class="st13" d="M1124.4,917.8c3.4-6.5,8.4-12,12.1-18.3c7.2-12.3,9.3-27.2,6.8-41.2s-9.7-26.9-19.3-37.3
	c-3.1-3.3-6.5-6.5-8.2-10.8c-14.3,24.3-16.4,54.8-2,79c0,0,1.1,16.8,1.3,17.5S1124.4,917.8,1124.4,917.8z"/>
<linearGradient id="SVGID_14_" gradientUnits="userSpaceOnUse" x1="1154.9624" y1="511.0198" x2="1221.6765" y2="511.0198" gradientTransform="matrix(0.9002 -0.4355 -0.4355 -0.9002 299.343 1899.7848)">
	<stop  offset="0" style="stop-color:#75A67E"/>
	<stop  offset="1" style="stop-color:#383865"/>
</linearGradient>
<path class="st14" d="M1133.2,968.1c10.1-4,20.2-9.6,25.8-18.9c4-6.8,5.3-14.8,5.6-22.7c0.4-11.3-1.1-22.5-4.4-33.3
	c-0.9-3-1.9-5.9-2.1-9s0.7-6.4,3.1-8.4c-13,4-23.3,14.8-28.3,27.4s-2.4,26.5-1.9,40c0.1,1.5-3.3,16.6-3.3,16.6L1133.2,968.1z"/>
<linearGradient id="SVGID_15_" gradientUnits="userSpaceOnUse" x1="1049.047" y1="538.0261" x2="1161.449" y2="538.0261" gradientTransform="matrix(0.9002 -0.4355 -0.4355 -0.9002 299.343 1899.7848)">
	<stop  offset="0" style="stop-color:#75A67E"/>
	<stop  offset="1" style="stop-color:#383865"/>
</linearGradient>
<path class="st15" d="M1112.7,924.8c-3.1,6.4-7,12.7-12.6,17.2c-2.9,2.2-6.1,4.2-9.4,5.8c-5,2.7-9.9,5.4-14.9,8.1
	c-4.1,2.2-8.2,4.5-12.7,5.4c-4.3,0.9-8.9,0.5-13.3-0.1c-16-2.1-31.6-6.9-46.1-14.2c15.5-4.9,27.7-16.5,39.6-27.5s25-22,40.9-25.2
	c4.6-1.1,9.5-1,14.1,0.1l2.3,1.3l12.3,19L1112.7,924.8z"/>
<linearGradient id="SVGID_16_" gradientUnits="userSpaceOnUse" x1="1073.4509" y1="490.4104" x2="1153.2659" y2="490.4104" gradientTransform="matrix(0.9002 -0.4355 -0.4355 -0.9002 299.343 1899.7848)">
	<stop  offset="0" style="stop-color:#75A67E"/>
	<stop  offset="1" style="stop-color:#383865"/>
</linearGradient>
<path class="st16" d="M1117.7,981.8c-10.6,7.6-24.6,9.2-37.4,6.9s-24.7-8.2-36.2-14.3c6,0.6,11.9-1.7,17-4.8s9.5-7.3,14.2-11
	c8.3-6.4,17.5-11.4,27.3-14.9c5.2-1.8,11.6-3,15.5,0.9c0,0,3.1,4.7,3.5,8.9s0.2,21.3,0.2,21.3L1117.7,981.8z"/>
<linearGradient id="SVGID_17_" gradientUnits="userSpaceOnUse" x1="1060.436" y1="882.026" x2="1109.3534" y2="882.026" gradientTransform="matrix(0.9002 -0.4355 -0.4355 -0.9002 299.343 1899.7848)">
	<stop  offset="0" style="stop-color:#75A67E"/>
	<stop  offset="1" style="stop-color:#383865"/>
</linearGradient>
<path class="st17" d="M920.8,638.3c0-0.2-0.1-0.3-0.1-0.5c-1.4-4.6-3.8-8.7-7-12.2c-6.7-7.2-16.5-10.9-26.3-12s-19.6,0-29.4,1.2
	c0.4,7,3.7,13.7,8.2,19.1s10.2,9.7,16.1,13.6c6.7,4.5,13.9,8.6,21.9,9.7s16.9-1.4,21.6-7.9L920.8,638.3z"/>
<linearGradient id="SVGID_18_" gradientUnits="userSpaceOnUse" x1="1169.2361" y1="501.8264" x2="1263.1198" y2="501.8264" gradientTransform="matrix(1 0 0 -1 9.36 1022.7029)">
	<stop  offset="0" style="stop-color:#75A67E"/>
	<stop  offset="1" style="stop-color:#383865"/>
</linearGradient>
<path class="st18" d="M1229.5,814.4c-15.4-15.2-49.3-114-50.5-135.6c-2-35.7,3.4-72.5,20.9-103.6c6.3-11.2,14.1-21.5,20.9-32.4
	c39.6-63,44.7-146.3,13-213.7c-7.9-16.9-18.1-33.3-20.3-51.9c-2.3-19.2,5.9-37.8,15.6-54.5l3.1,2.3c28,20.4,39.6,54.5,35.8,89
	c-2,18.5-9.3,36.6-7.6,55.2c0.7,7.7,2.9,15.1,5.1,22.5c11.4,38.5,7.9,73.9-5.2,111.9c-21.3,61.6-69,91.6-67.4,175.3
	c0.5,24.9,37.7,117.7,68.9,140.1"/>
<linearGradient id="SVGID_19_" gradientUnits="userSpaceOnUse" x1="1176.21" y1="656.3714" x2="1248.84" y2="656.3714" gradientTransform="matrix(1 0 0 -1 9.36 1022.7029)">
	<stop  offset="0" style="stop-color:#75A67E"/>
	<stop  offset="1" style="stop-color:#383865"/>
</linearGradient>
<path class="st19" d="M1254.7,413.8c-3.6-9.3-25.6-17.5-30.8-20.8c-22.4-14.1-37-47.6-38.3-74.1c26.5,7,49,24.6,62.2,48.6l10.4,36.8
	L1254.7,413.8z"/>
<linearGradient id="SVGID_20_" gradientUnits="userSpaceOnUse" x1="1179.28" y1="599.2391" x2="1247.9299" y2="599.2391" gradientTransform="matrix(1 0 0 -1 9.36 1022.7029)">
	<stop  offset="0" style="stop-color:#75A67E"/>
	<stop  offset="1" style="stop-color:#383865"/>
</linearGradient>
<path class="st20" d="M1253.2,446.5c-12.2,5.3-20.3,2.6-30.8-3.1c-10.8-5.9-18.1-16.4-24.2-27.1c-3.4-6-6.6-12.1-9.5-18.4
	c18-0.9,55.4-1,66.1,18.3l2.6,22.4C1257.3,438.6,1254.9,445.7,1253.2,446.5z"/>
<linearGradient id="SVGID_21_" gradientUnits="userSpaceOnUse" x1="1255.6097" y1="638.0922" x2="1312.5576" y2="638.0922" gradientTransform="matrix(1 0 0 -1 9.36 1022.7029)">
	<stop  offset="0" style="stop-color:#75A67E"/>
	<stop  offset="1" style="stop-color:#383865"/>
</linearGradient>
<path class="st21" d="M1265.1,389.7c-1.1-7.1,5.4-17.4,10.2-20.9c22.4-16.6,39.5-20.3,46.3-19.5c2.6,21.5-12.3,43.4-15.8,49
	c-7.3,11.5-22.3,19.6-34.4,21.6c0,0-5.5-11.5-5.8-12S1265.1,389.7,1265.1,389.7z"/>
<linearGradient id="SVGID_22_" gradientUnits="userSpaceOnUse" x1="1256.936" y1="583.9609" x2="1333.8099" y2="583.9609" gradientTransform="matrix(1 0 0 -1 9.36 1022.7029)">
	<stop  offset="0" style="stop-color:#75A67E"/>
	<stop  offset="1" style="stop-color:#383865"/>
</linearGradient>
<path class="st22" d="M1268.8,470.7c21.8,7.4,55.6-18.5,63.8-36.7c3.8-8.6,8.8-15.3,10.6-24.5c-14-5.4-34.9-5.6-47.9,2
	c-7.9,4.7-23.3,19-23,28.2c0,0-6.3,11-6,14.3S1268.8,470.7,1268.8,470.7z"/>
<linearGradient id="SVGID_23_" gradientUnits="userSpaceOnUse" x1="1207.1771" y1="497.9062" x2="1347.01" y2="497.9062" gradientTransform="matrix(1 0 0 -1 9.36 1022.7029)">
	<stop  offset="0" style="stop-color:#75A67E"/>
	<stop  offset="1" style="stop-color:#383865"/>
</linearGradient>
<path class="st23" d="M1264.5,490.8c22.1-24.7,70.4-35.3,91.9-28.8c-5.1,21.1-15.6,39.3-33.9,50.8c-33.7,21.2-76.8,24.7-77.8,25.9
	c23.8-5.4,67-6.8,90.4,11.6c-32.8,39.6-87.6,46.8-116.6,31.8c0,0-2.5-8.8-1.9-10.2S1264.5,490.8,1264.5,490.8z"/>
<linearGradient id="SVGID_24_" gradientUnits="userSpaceOnUse" x1="1185.6985" y1="404.6762" x2="1316.02" y2="404.6762" gradientTransform="matrix(1 0 0 -1 9.36 1022.7029)">
	<stop  offset="0" style="stop-color:#75A67E"/>
	<stop  offset="1" style="stop-color:#383865"/>
</linearGradient>
<path class="st24" d="M1199.2,619.9c26.9,32.3,66,29.6,87.2,20.2c12-5.3,28.1-13.1,39-18c-13-18.9-35.2-31.4-58.1-32.3
	c-8.9-0.3-17.6,1.4-26.7,0.8c0,0-22.4-5.2-38.6,10.5C1188.2,614.4,1199.2,619.9,1199.2,619.9z"/>
<linearGradient id="SVGID_25_" gradientUnits="userSpaceOnUse" x1="1193.1837" y1="542.4055" x2="1238.4607" y2="542.4055" gradientTransform="matrix(1 0 0 -1 9.36 1022.7029)">
	<stop  offset="0" style="stop-color:#75A67E"/>
	<stop  offset="1" style="stop-color:#383865"/>
</linearGradient>
<path class="st25" d="M1232.8,521.2c0-4.4-6.8-9.9-11.1-14.5c-6.4-6.9-11.6-14.7-15.6-23.2c-1.8-3.9-3.4-8-3.6-12.4
	c-0.2-5.8,2-11.3,4.3-16.6s4.3-10.4,6.5-15.5c18.7,4.2,32.4,21.5,34.5,40.5c0.1,0.6-4.5,19.4-4.8,22.6S1232.8,523.8,1232.8,521.2z"
	/>
<linearGradient id="SVGID_26_" gradientUnits="userSpaceOnUse" x1="1173.0757" y1="495.6865" x2="1212.4285" y2="495.6865" gradientTransform="matrix(1 0 0 -1 9.36 1022.7029)">
	<stop  offset="0" style="stop-color:#75A67E"/>
	<stop  offset="1" style="stop-color:#383865"/>
</linearGradient>
<path class="st26" d="M1202.2,572c-3.2-1.2-11.8-8.6-12.9-10.3c-5.8-9.2-7.3-18.3-6.7-29.1s3.9-21.2,8.7-30.6
	c3.3-6.5,7.4-12.8,9.4-19.9c18.3,14.9,26,42.4,18.2,64.3l-5,20.5L1202.2,572z"/>
<linearGradient id="SVGID_27_" gradientUnits="userSpaceOnUse" x1="1143.9629" y1="450.9364" x2="1181.3013" y2="450.9364" gradientTransform="matrix(1 0 0 -1 9.36 1022.7029)">
	<stop  offset="0" style="stop-color:#75A67E"/>
	<stop  offset="1" style="stop-color:#383865"/>
</linearGradient>
<path class="st27" d="M1183,621.7c-3.2-7.7-9.6-12-15.4-17.9c-14.8-14.8-17.6-38.8-10.6-58.5c2.8-7.7,6.9-15.2,7.4-23.4
	c9,4.1,13.7,13.9,17.3,23c7.5,18.8,12.2,38.9,5.6,58c0,0,4,11.7,3.3,12.5S1183,621.7,1183,621.7z"/>
<linearGradient id="SVGID_28_" gradientUnits="userSpaceOnUse" x1="1130.1598" y1="392.5865" x2="1175.1407" y2="392.5865" gradientTransform="matrix(1 0 0 -1 9.36 1022.7029)">
	<stop  offset="0" style="stop-color:#75A67E"/>
	<stop  offset="1" style="stop-color:#383865"/>
</linearGradient>
<path class="st28" d="M1180.1,680.3c-5.5-4.6-12-7.7-17.7-12c-11.1-8.4-18.6-21.1-21.4-34.6s-1.3-27.9,3.6-40.9
	c1.6-4.2,3.5-8.3,3.4-12.8c21.9,16.6,35.2,43.4,31.3,70.6c0,0,5.3,15.5,5.3,16.3S1180.1,680.3,1180.1,680.3z"/>
<linearGradient id="SVGID_29_" gradientUnits="userSpaceOnUse" x1="1121.9601" y1="330.3052" x2="1183.4299" y2="330.3052" gradientTransform="matrix(1 0 0 -1 9.36 1022.7029)">
	<stop  offset="0" style="stop-color:#75A67E"/>
	<stop  offset="1" style="stop-color:#383865"/>
</linearGradient>
<path class="st29" d="M1190.8,728.9c-10.6,0.2-21.8-1.1-30.3-7.5c-6.2-4.6-10.3-11.4-13.5-18.4c-4.6-10-7.4-20.7-8.4-31.7
	c-0.3-3-0.4-6-1.4-8.9s-3-5.5-5.9-6.4c13.2-1.2,26.5,4.7,35.7,14.2s12,23,16.6,35.4c0.5,1.3,9.2,13.8,9.2,13.8L1190.8,728.9z"/>
<linearGradient id="SVGID_30_" gradientUnits="userSpaceOnUse" x1="1179.85" y1="352.498" x2="1290.42" y2="352.498" gradientTransform="matrix(1 0 0 -1 9.36 1022.7029)">
	<stop  offset="0" style="stop-color:#75A67E"/>
	<stop  offset="1" style="stop-color:#383865"/>
</linearGradient>
<path class="st30" d="M1193.2,682.2c5.2,4.6,11.1,8.8,17.8,10.8c3.5,0.9,7,1.5,10.6,1.8l16.4,1.8c4.5,0.5,9.1,1,13.5,0.1
	c4.3-0.8,8.2-2.8,11.9-5c13.7-7.9,26-18.1,36.3-30c-15.8,1.3-31.1-4.6-46-10.1s-30.8-10.6-46.3-7.5c-4.6,0.8-8.9,2.6-12.7,5.4
	l-1.6,2l-4,21.8L1193.2,682.2z"/>
<linearGradient id="SVGID_31_" gradientUnits="userSpaceOnUse" x1="1185.9453" y1="306.7695" x2="1264.2" y2="306.7695" gradientTransform="matrix(1 0 0 -1 9.36 1022.7029)">
	<stop  offset="0" style="stop-color:#75A67E"/>
	<stop  offset="1" style="stop-color:#383865"/>
</linearGradient>
<path class="st31" d="M1209.9,735.5c12.4,2.9,25.6-0.9,36.3-7.7s19.3-16.5,27.3-26.4c-5.2,2.8-11.3,2.9-17.1,1.9s-11.3-3.1-16.9-4.6
	c-9.8-2.7-20-3.8-30.2-3.3c-5.3,0.3-11.6,1.7-13.7,6.6c0,0-1.1,5.4,0.2,9.4s7.7,19.3,7.7,19.3L1209.9,735.5z"/>
<linearGradient id="SVGID_32_" gradientUnits="userSpaceOnUse" x1="1250.0199" y1="685.532" x2="1299.8481" y2="685.532" gradientTransform="matrix(1 0 0 -1 9.36 1022.7029)">
	<stop  offset="0" style="stop-color:#75A67E"/>
	<stop  offset="1" style="stop-color:#383865"/>
</linearGradient>
<path class="st32" d="M1259.7,352.3c0-0.1,0-0.3-0.1-0.5c-0.5-4.6,0.2-9.3,1.8-13.6c3.4-9,10.8-16,19.2-20.6s17.7-7.3,27-9.9
	c2.3,6.5,1.8,13.8-0.3,20.3s-5.6,12.6-9.5,18.3c-4.4,6.5-9.4,12.9-16.2,16.9s-15.8,5-22.4,0.9L1259.7,352.3z"/>
<linearGradient id="SVGID_33_" gradientUnits="userSpaceOnUse" x1="3580.5979" y1="1533.2837" x2="3878.1079" y2="1533.2837" gradientTransform="matrix(-0.58 0.81 -0.81 -0.58 4645.1626 -1251.4471)">
	<stop  offset="0" style="stop-color:#75A67E"/>
	<stop  offset="1" style="stop-color:#383865"/>
</linearGradient>
<path class="st33" d="M1188.6,896.8c-12.8,12.7-22.9,28.8-27.5,46.3c-2.4,9.1-1.8,17.4-2.2,26.5s-7,15.2-15.7,19.4
	c-7,3.4-15.5,4.2-22.6,1.1c-10.8-4.7-16.2-17-18.5-28.6c-3.1-15.7-5.6-35,7.6-44.3c20.4-14.3,6.6-33.5,29.7-57.4
	c8.7-9,32.9-12.5,43.3-19.4c12.7-8.5,16.8-25.3,27.4-36.2c14.1-14.6,38.9-15.7,56.1-5c5,3.1,9.6,7.2,15.3,8.7
	c10.3,2.8,20.7-3.1,30.7-7.1c14.8-5.9,31.7-7.5,46.8-2.6s28.3,17,32.7,32.3c-42.4-15.1-89,2.2-129.9,20.9
	C1235.5,863.4,1209,876.4,1188.6,896.8z"/>
<linearGradient id="SVGID_34_" gradientUnits="userSpaceOnUse" x1="3316.7202" y1="1322.6549" x2="3627.5403" y2="1322.6549" gradientTransform="matrix(-0.43 0.9 -0.9 -0.43 3799.7844 -1689.2228)">
	<stop  offset="0" style="stop-color:#75A67E"/>
	<stop  offset="1" style="stop-color:#383865"/>
</linearGradient>
<path class="st34" d="M1163.1,724.4c-8.5,9.8-14.8,21.5-20.4,33.2c-16.6,34.7-27.5,73.4-30.7,111.8c-1.5,18.1-1.3,36.7,3.3,54.3
	c1.9,7.7,4.9,15.1,8.8,21.9c2,3.3,18.8,26.9,16.6,31.8c-7.6,16.5-34,23.3-48.5,34.3c-6.1,4.6-12.7,9.4-20.3,10.2
	c-17.3,1.8-31.5-20.3-37.4-34c-4.5-10.4-5.5-22.9,0.2-32.7c5-8.6,14.4-14.2,18.3-23.3c9-21.3-17.1-46.1-7.3-67.1
	c5.6-12,20.7-16.6,28.2-27.6c8.9-12.9,3.3-30.3,5.2-45.8C1083.8,751.7,1124.2,728.5,1163.1,724.4z"/>
<linearGradient id="SVGID_35_" gradientUnits="userSpaceOnUse" x1="788.9807" y1="586.0716" x2="1055.0056" y2="586.0716" gradientTransform="matrix(0.9002 -0.4355 -0.4355 -0.9002 299.343 1899.7848)">
	<stop  offset="0" style="stop-color:#75A67E"/>
	<stop  offset="1" style="stop-color:#383865"/>
</linearGradient>
<path class="st35" d="M700.6,917.7c14.7-0.9,29.6,1.4,44,4.3c42.8,8.8,85.2,25.5,122.1,48.9c17.3,11,34,24,46.9,40.2
	c5.6,7,10.3,14.7,13.7,23c1.7,4.1,1.9,9.3,3.8,13.1c2.9,5.9,11,8.8,17,10.1c20.2,4.5,41-1.2,60.8-6.8c8.4-2.4,17.2-5,23.2-11.4
	c13.5-14.4,3.3-42.4-5.1-57.1c-6.3-11.2-16.9-20.6-29.6-22.2c-11.2-1.4-22.7,3.3-33.6,0.5c-25.4-6.5-30-47-55.6-52.6
	c-14.7-3.2-29.2,7.3-44.3,6.6c-17.7-0.8-29.6-17.7-45-26.7C779.7,864.7,731,885.4,700.6,917.7z"/>
<linearGradient id="SVGID_36_" gradientUnits="userSpaceOnUse" x1="1511.6786" y1="-1301.0789" x2="1775.405" y2="-1301.0789" gradientTransform="matrix(0.9582 0.286 0.286 -0.9582 -341.3975 -699.2266)">
	<stop  offset="0" style="stop-color:#75A67E"/>
	<stop  offset="1" style="stop-color:#383865"/>
</linearGradient>
<path class="st36" d="M978.5,1054c-15-14.2-38.3-12.2-58.8-10.1c-24.9,2.5-47.1,10-72.1,8.7s-56.7-12-76.5-27.3
	c-37.9-29.4-30.9-62.8-30.9-62.8c5.2-1.7,14.2,32.4,40.6,37c15.6,2.7,32.5-2.9,44.7,7.3c3.3,2.7,5.5,6.6,8.9,9.1
	c8,6.1,19.5,3.5,28.8-0.3c13.6-5.5,26.5-12.9,40.5-17.2s30.1-5,42.7,2.6c5.7,3.4,10.3,8.3,16,11.7c7.7,4.5,17,6.1,23.9,11.8
	c6.9,5.7,9,18.6,0.9,22.4"/>
<linearGradient id="SVGID_37_" gradientUnits="userSpaceOnUse" x1="2977.0413" y1="291.3418" x2="3240.7612" y2="291.3418" gradientTransform="matrix(-0.25 0.97 -0.97 -0.25 2884.2942 -2453.9058)">
	<stop  offset="0" style="stop-color:#75A67E"/>
	<stop  offset="1" style="stop-color:#383865"/>
</linearGradient>
<path class="st37" d="M1794.9,607.8c-4.3-20.2,9.4-39.1,21.9-55.5c15.1-20,33-35.1,44.9-57.1c11.9-22,19.2-54.7,16.3-79.6
	c-5.5-47.6-37.6-59-37.6-59c-4.2,3.5,20.4,29,10.6,54c-5.8,14.7-19.3,26.3-16.9,42c0.7,4.2,2.8,8.1,3.2,12.3
	c1,10-7.1,18.4-15.2,24.5c-11.8,8.8-24.8,15.9-35.7,25.7c-10.9,9.8-19.9,23.2-19.9,37.9c0,6.6,1.8,13.1,1.7,19.8
	c-0.1,8.9-3.6,17.7-2.3,26.5s11.2,17.3,18.7,12.4"/>
<path class="st38" d="M1298,558.1c-8.7,0.6-49.2-1.4-60.3-4.2c-0.6-1.2,0.1-2.7,0.8-3.8l14.7-25.2c14.2,1,29.3-0.2,43.4,0.8
	L1298,558.1z"/>
<path class="st38" d="M1250.4,543.9l-89.4,35.6c0,0-12.5,0-20.6,18.8c-2.2,5.1-22.9,128.8-22.9,128.8c14.3-4.1,29.2-5.8,44-5
	c24.3,1.4,34.9,7.5,34.9,7.5v60.8h240.4l69.1-81.5l-59.3-136.8l-108.7-31.7L1250.4,543.9z"/>
<path class="st39" d="M1290.7,323.4c-1.9,2.3-4.1,4.4-6.6,6.1c-0.5-0.4-1.2-0.7-1.9-0.6c-17,1.5-36.8,0.3-46.6,17
	c-4.3,7.4-5.4,16.1-4.3,24.5c1.1,8.9,4.5,19.9,9.2,27.7c0.3,0.5,0.7,0.9,1.1,1.3c2,3.1,7.1,3.3,8.3-0.9c1.8-6.8-0.3-12.8-1.3-19.1
	c1.8-0.3,3.2-1.6,3.6-3.3c2.7-9.7,8.5-18.3,16.6-24.4l-0.1-0.1c1.5-1.9,1.5-4.5,0-6.4c10-4.5,19.6-8.9,25.1-19.3
	C1294.8,323.9,1292.1,321.6,1290.7,323.4z"/>
<path class="st39" d="M1373.5,336c-1.3-0.7-2.8-0.2-3.5,1.1c0,0.1-0.1,0.1-0.1,0.2c-2.4,0.1-4.7,0.6-7,1.3c-2.9,0.9-4.7,5.2-2,7.5
	c14.8,12.1,13.7,38.5,10.2,55.5c-1.2,5.8,7.8,8.2,8.9,2.4c2.6-14.5,6.1-29,7.8-43.6C1389.1,348.9,1383.6,341.1,1373.5,336z"/>
<path class="st40" d="M1255.4,550.3l2.7-76.7l-7.3-26.3c0,0-10.8,2.7-13.7-17.4c-2.3-16.2-2.2-18.4-2.2-18.4s-1.8-12.3,13.2-12.3
	l15.9-45.8c0,0,15.4-12.2,59-12.2s49.4,9.5,49.4,9.5l5.9,38.1l-1.4,10c0,0,9.5,1,9.5,10.5s-3.4,24.5-3.4,24.5s-1.4,9.5-8.2,7.5
	c0,0-5.8,22.8-7.1,30.6s-2.4,38.4-2.4,38.4c-8,7.7-18.8,12-29.9,11.9l11.2,33.3c0,0,6.3,51.2-33.2,51.2S1255.4,550.3,1255.4,550.3z"
	/>
<linearGradient id="SVGID_38_" gradientUnits="userSpaceOnUse" x1="1316.6887" y1="711.7816" x2="1305.6488" y2="620.0616" gradientTransform="matrix(1 0 0 -1 9.36 1022.7029)">
	<stop  offset="0" style="stop-color:#FFE3BB"/>
	<stop  offset="1" style="stop-color:#DDB895"/>
</linearGradient>
<path class="st41" d="M1269.4,436.3c2.5,0.5,4.8-1.1,5.3-3.6c1.1-4.4-6.9-13.2,3.3-22.5s2.2-29.4,2.2-29.4s31.8-14.8,60.9-13.2
	s34.6,2.7,34.6,2.7s0.3-26.3-2.5-29.6s-12.1-7.4-22.5-8s-53.8,7.1-57.1,8.8s-29.1,24.4-29.1,24.4l-4.7,21.7L1269.4,436.3z"/>
<path class="st40" d="M1125.6,742.5c-3,13.1-6.1,50.6,22.6,50.6c0,0,54.7,10.4,54.7-45.4c0-5,0.6-11.3-0.5-15
	c-10.8-38-72.9-12.5-72.9-12.5S1126.8,737.5,1125.6,742.5z"/>
<path class="st40" d="M1799.9,552.1l-13.9-40.4l7.4-39.8c0,0,16.6-3.2,18.5-10.2s11.1-33.3,4.6-37.9s-8.3-6.9-8.3-6.9l10.6-49.9
	c0,0-36-31.4-83.7-31.4s-50.9,29.1-50.9,29.1l-5.6,34.2l2.3,13.9c0,0-7.4,4.6-7.4,8.3s10.6,35.6,10.6,35.6l0.9,37.4
	c0,0,10.6,22.2,12.5,25s24.2,5.1,24.2,5.1l-17.2,57.5c0,0,37.4,33.9,42.9,31.1S1799.9,552.1,1799.9,552.1z"/>
<linearGradient id="SVGID_39_" gradientUnits="userSpaceOnUse" x1="3076.9102" y1="510.1704" x2="3171.98" y2="510.1704" gradientTransform="matrix(-1 0 0 -1 4862.6299 1022.7029)">
	<stop  offset="0" style="stop-color:#FFE3BB"/>
	<stop  offset="1" style="stop-color:#DDB895"/>
</linearGradient>
<path class="st42" d="M1721.9,524.2l34.7-5.2l29.1-35.4c0,0-5.7,43.8-25.3,52.3s-43.3,4.5-43.3,4.5L1721.9,524.2z"/>
<path class="st39" d="M1798.4,419.9c-2.1,3-4.9,15.4-6.7,24.3l-8.2-7.4l-1.4-21.7l-10.4-6.7l1.2-31.2c0,0-13.9-18-49.7-18.3
	s-38.8,5.8-38.8,5.8s-11.2-2.9-16-17.3c-3.5-10.6-2.3-32.7,14.7-40.3c0,0,27.5,10,41.9,3.1c25.7-12.3,64.4-5,72.8,12
	c0.9,1.8,5.2,14,5.2,14s16.3-3.8,22.5,3.6c12.7,15,9.3,28.9,9.3,28.9l-22.2,52.4C1812.6,421,1802.4,414.1,1798.4,419.9z"/>
<linearGradient id="SVGID_40_" gradientUnits="userSpaceOnUse" x1="3057.3062" y1="599.7595" x2="3072.5562" y2="550.1895" gradientTransform="matrix(-1 0 0 -1 4862.6299 1022.7029)">
	<stop  offset="0" style="stop-color:#FFE3BB"/>
	<stop  offset="1" style="stop-color:#DDB895"/>
</linearGradient>
<path class="st43" d="M1795.4,428l-8.4,33.2c0,0,6.3,6.6,12.9-1s9.4-25.7,9.4-25.7s1.8-8.1-12.5-11.1L1795.4,428z"/>
<path class="st44" d="M1799.9,552.1c0,0-39.5,36.4-65.9,29.8s-23.7-19-23.7-19s-15.1,35,6.3,38.8s82.8-22.9,84.2-49.6"/>
<path class="st40" d="M1928,789.9c0,0-9.2,35.7-8.9,39.2s-11.8,40.9-40.2,37.1s-31.5-38.5-31.5-38.5l20.1-47.2
	C1867.5,780.6,1901.2,775.4,1928,789.9z"/>
<path class="st44" d="M1935.4,797.5V642.6c0,0-0.4-14-1.1-20.6s-19.7-17.5-19.7-17.5l-80.5-42.3l-34.3-10.4c0,0-39.5,45.4-62.1,44.4
	s-26.8-33.2-26.8-33.2c0.7-3.1,1.2-5.4,1.2-5.4c-3.4-1.3-6.9,4.2-6.9,4.2l-62.1,19.4l-27.2,64.6l32.9,171l-50.4,178
	c0,0-37.4,42.7,39.3,55.5c10.9,1.7,21.8,2.8,32.8,3.3c74.7,19.7,195.6-10.3,196.8-10.7c1.4-0.5,16.8,1.4,13.4-18.5
	c-5.1-29.6-2.2-158.1-2.2-158.1s4.3,0.6,0,0l-11.4-85.5l12,0.3C1899.3,782.3,1935.4,797.5,1935.4,797.5z"/>
<linearGradient id="SVGID_41_" gradientUnits="userSpaceOnUse" x1="1705.8275" y1="464.4211" x2="1761.4276" y2="62.0711" gradientTransform="matrix(1 0 0 -1 9.36 1022.7029)">
	<stop  offset="0" style="stop-color:#405DA9"/>
	<stop  offset="1" style="stop-color:#162354"/>
</linearGradient>
<path class="st45" d="M1935.6,797.4v-12.5c-0.2-0.3-0.4-0.6-0.7-0.9c-4.8-5.5-11.4-8.6-17.4-12.5c-4.4-2.8-9.3-5.5-11.7-10.4
	c-4.6-9.2-2.8-20-2-29.8c0.6-6.7,1.3-13.6,0.2-20.2c-0.4-2.7-1-5.5-1.9-8.1c-1.2-3.1-3.2-3.9-6-5c-8.3-3.4-16.5-8.7-16.4-18.7
	c0-8.2,6-15.1,11.4-20.7c5.5-5.7,12.7-10.4,17.2-17.1c4.7-7.1-6.1-3.4-9.5-2.3c-5.8,1.8-11.1,4.8-16.9,6.6c-2.7,0.8-6.7,2.1-8.5-1
	c-1.5-2.6,0.4-6.3,1.4-8.7c2.6-6.1,6.6-11.4,10.4-16.7c1.1-1.6,2.3-3.2,3.4-4.8c-7.5-4.4-15.4-8.2-23.5-11.5
	c-9.3-3.9-18.7-7.6-27.8-12c-7.5-3.7-18.7-8.5-23.1-16c-0.4-0.6-0.6-1.3-0.8-2c-1.7-1.8-3.6-3.4-5.6-3.8c-4.4-0.8-9.6,2.7-13.2,4.8
	c-4.4,2.7-12,12-29.8,19.4c-15.9,6.8-34.2,4.7-48-5.6c-6.1-5.1-11.1-11.3-14.8-18.3c-0.2,0.7-0.3,1.4-0.4,2.1c0.8,2,1.2,4.1,1.8,6.1
	c2.1,7.1,6.6,13.2,11.7,18.4c5.9,6,13,12,21.4,13.7c29.3,6,42-9.6,41.3-8.3c-5.3,10.3-10.5,19.2-20.2,26s-20.7,8.8-32.2,9.8
	c-6.3,0.5-13.5,0.6-19.1,3.9c-0.3,0.2-0.5,0.3-0.8,0.5c-4.4,8.3-4.6,18.2-12.5,24.7c-11.9,9.7-30.2,11.7-44.8,14.5
	c-8.1,1.6-16.3,2.6-24.6,3.1l25.5,132.7l-50.4,178c0,0-37.4,42.7,39.3,55.5c10.9,1.7,21.8,2.8,32.8,3.3
	c74.7,19.8,195.6-10.3,196.8-10.7s16.8,1.4,13.4-18.5c-5.1-29.6-2.2-158.1-2.2-158.1s4.3,0.6,0,0l-11.4-85.5l12,0.2
	C1899.6,782.2,1935.6,797.4,1935.6,797.4z"/>
<linearGradient id="SVGID_42_" gradientUnits="userSpaceOnUse" x1="1586.11" y1="441.0364" x2="1932.0601" y2="441.0364" gradientTransform="matrix(1 0 0 -1 9.36 1022.7029)">
	<stop  offset="0" style="stop-color:#405DA9"/>
	<stop  offset="1" style="stop-color:#162354"/>
</linearGradient>
<path class="st46" d="M1650,584.6c4.6-3.2,9.4-5.9,14.4-8.3l-15.1,4.7l-2.5,6C1647.8,586.2,1648.9,585.4,1650,584.6z"/>
<path class="st39" d="M1248.1,399.3c2.7-0.3,5.2,1.2,6.2,3.7c2.4,5.3,5.6,36.6,5.6,36.6l9.5-3.4l-2-29.3c0,0,17-10.2,16.3-11.2
	s-4.1-25.5-4.1-25.5l-31.6,14.3L1248.1,399.3z"/>
<path class="st39" d="M1254.8,447c-2.4,0.6-4.9,0.6-7.3,0c-0.2-0.1,10,34.8,10,34.8l3.1-5.1L1254.8,447z"/>
<linearGradient id="SVGID_43_" gradientUnits="userSpaceOnUse" x1="1261.8567" y1="509.0292" x2="1330.6201" y2="509.0292" gradientTransform="matrix(1 0 0 -1 9.36 1022.7029)">
	<stop  offset="0" style="stop-color:#FFE3BB"/>
	<stop  offset="1" style="stop-color:#DDB895"/>
</linearGradient>
<path class="st47" d="M1271.3,490.9c0,0,12,31.4,64.2,31.4l4.5,13.3C1340,535.6,1269.2,546.3,1271.3,490.9z"/>
<linearGradient id="SVGID_44_" gradientUnits="userSpaceOnUse" x1="1157.498" y1="552.0228" x2="1170.598" y2="509.4427" gradientTransform="matrix(0.99 0.13 0.13 -0.99 28.8757 803.1371)">
	<stop  offset="0" style="stop-color:#FFE3BB"/>
	<stop  offset="1" style="stop-color:#DDB895"/>
</linearGradient>
<path class="st48" d="M1255.7,438.9c0.2-0.2,0.3-0.5,0.4-0.7c2.3-4.2-0.7-7.5-1.9-11.5c-2-6.6,0.2-17.1-8.3-19.1
	c-0.3-0.1-0.5-0.2-0.8-0.3c-1.7,1.6-2.6,3.8-2.6,6.1c0,0,0.7,13.9,4.4,21.6C1249,439.3,1252.8,439.5,1255.7,438.9z"/>
<path class="st39" d="M1375.9,398.7l-0.2-28.3c0,0,4.2,12.1,4.8,15.6s-1.5,8-1,13.5L1375.9,398.7z"/>
<path class="st38" d="M1255.2,526.4c12,13.8,43.9,45.8,44,48c0.7,15.7,22.5,31.7,22.5,31.7s-4,4.8-10.1,5.5
	c-4.3,0.5-17.1-4.4-24.5-7.4c-4,9.3-8.6,17.8-13.8,8.4c-13.4-21.9-21-37.8-36-59L1255.2,526.4z"/>
<path class="st39" d="M1363.7,342.1c-18-3.3-36.5-3-54.4,0.9c-6.9,1.5-15.6,3-21.4,7.2c-6.8,4.9-10.1,15.8-13.8,23
	c-2.2,4.3,4.3,8,6.4,3.8c3.1-6.5,6-17.4,11.8-21.8s15.7-5.8,22.7-7.2c15.9-3.2,32.2-4.1,48.3-2.5
	C1365.1,345.7,1365.6,342.4,1363.7,342.1L1363.7,342.1z"/>
<path class="st39" d="M1384.6,305.3c-6.3,3.1-13.3,1.4-19.8-0.1c-6.7-1.5-13.4-3-20.2-4c-11-1.6-22.2-2.5-33.2-0.7
	c-20.3,3.3-40.6,13.2-45.1,34.8c0,0.3,0,0.5,0,0.8c-2.1,2.8-4.2,5.6-6.2,8.5c-0.7,1.1-0.4,2.6,0.7,3.3c0.1,0.1,0.3,0.2,0.4,0.2
	c-0.7,0.4-1.3,0.9-2,1.3c-11.5,7.9-11.6,24.9-11.5,37.5c0,4.5,7.2,7.2,9.2,2.5c0.6-1.5,1.3-3,1.9-4.4c1.7,0.7,3.6,0.2,4.7-1.2
	l1.4-1.7c1.3,2.9,5.4,4.7,7.8,1.7c7.2-9,13-19.1,17.1-29.9c4.9-2.8,9.8-5.7,14.7-8.6c8.1-0.9,16.3-1.1,24.5-0.8
	c14.6,0.6,30.9,4.2,44.8-1.9c0.3-0.1,0.5-0.2,0.7-0.4c1.2,2,4,3,5.8,0.8c7.6-9.7,10.5-22,10.3-34.2c-0.1-2.3-2-4.1-4.3-4
	C1385.9,304.8,1385.2,305,1384.6,305.3z M1353.7,338.9L1353.7,338.9L1353.7,338.9z"/>
<linearGradient id="SVGID_45_" gradientUnits="userSpaceOnUse" x1="1279.6667" y1="429.846" x2="1312.42" y2="429.846" gradientTransform="matrix(1 0 0 -1 9.36 1022.7029)">
	<stop  offset="0" style="stop-color:#F05C5C"/>
	<stop  offset="1" style="stop-color:#862D2D"/>
</linearGradient>
<path class="st49" d="M1289,606.9c-0.4-0.3,10.2-32.9,10.2-32.9s0.2,14.5,22.6,32.1C1321.8,606,1305.1,618.3,1289,606.9z"/>
<path class="st38" d="M1365.1,592.5c0,0-1.2-14.6-1.8-23c-0.7-10.2-8.4-17.9-8.4-17.9s-14-19.2-14.7-19.8l-1.7-0.1
	c-0.1,0.1,1.8,4.1,1.4,6.1c-2.6,14.5-9.4,43.9-9.2,44.1c-7.2,8.1-16.6,17.5-16.6,17.5s13.4,17.3,22.3,7.2c0.2-0.2,7-12.6,7.2-12.8
	c3,2.7,6.4,5.7,10,8.8C1366,613.4,1365.1,592.5,1365.1,592.5z"/>
<linearGradient id="SVGID_46_" gradientUnits="userSpaceOnUse" x1="1274.2452" y1="497.076" x2="1250.8353" y2="302.486" gradientTransform="matrix(1 0 0 -1 9.36 1022.7029)">
	<stop  offset="0" style="stop-color:#F05C5C"/>
	<stop  offset="1" style="stop-color:#862D2D"/>
</linearGradient>
<path class="st50" d="M1248.1,562.3c-18.2,10.3-36,21.4-53.2,33.4c-1,0.6-1.9,1.5-2.3,2.5c-0.5,1.6,0.4,3.2,1.4,4.6
	c8.5,13.1,15.3,27.3,20,42.2c1.9,5.9,3.4,12.1,2.6,18.3c-0.8,5.9-3.8,11.3-5,17.2c-2.1,9.8,0.8,19.8,2,29.8c1,8,0.9,16,0.8,24
	l-0.4,31.5c-0.1,6.6-3.3,22.2,0.1,27.8c3.5,5.8,18.5,6.3,24.4,6.5c9.3,0.2,18.6-1,27.8-2c16.5-1.8,33.1-2.3,49.7-1.6
	c4.2,0.2,8.6,0.4,12.4-1.2s7-5.9,5.9-9.9c-0.7-2.4-2.6-4.3-4.6-5.8c-5.6-4.5-11.8-8.1-18.5-10.6c-2.4-0.9-5.1-1.8-6.6-4
	c-2.8-4.1,0.4-9.4,3.2-13.4s5.2-10,1.6-13.3c-1.1-0.9-2.4-1.5-3.7-1.8c-7.6-1.9-15.4,0.9-23.2,1.7c-7,0.6-14-0.4-20.4-3.1
	c-1.6-0.6-3.1-1.5-4.3-2.8c-1.4-1.7-1.7-4.1-1.8-6.3c-0.6-11.2,2.5-22.2,8.9-31.4c4.9-7,12-14,10.9-22.5
	c-0.8-6.7-6.4-11.5-11.2-16.3c-12.3-12.1-21.4-27.7-24.7-44.6s-0.2-35.3,9.6-49.5"/>
<path class="st39" d="M1030.6,698c4,5.2,7.7,10.6,11.2,16.2c3.3,5.4,7.5,11.3,9.2,17.4s0.6,13.3,0.2,19.5
	c-0.4,7.3-1.1,14.7-2.2,21.9c-0.6,4.4,1.1,8.8,5.8,10.1c3.8,1.1,9.5-1.3,10.1-5.8c1.2-8.4,2.2-16.8,2.7-25.3
	c0.5-7.6,1.2-15.6-0.3-23.1c-1.4-7-0.6-20.4-4.2-26.5c-4-6.8-21.2-33.2-26-39.5c-2.7-3.6,0.7,21.3-3.5,23.7
	C1030,688.7,1027.9,694.5,1030.6,698L1030.6,698z"/>
<path class="st39" d="M1245.1,726.7c4-12.1,2.5-24.9-0.1-37.2c-2.8-8.3-4.8-16.8-5.8-25.5c-1.7-7.4-3.2-14.9-4.2-22.5
	c-3.8-28.3-3.4-56.9-5.4-85.4c-1.4-22.1-5.2-43.9-11.4-65.1c-4.7-15.8-11-32.1-21.2-45.3c-5.7-6-11.4-12.2-19.4-15
	c-8.7-3.1-17.5-1-26.3,0.4c-9.1,1.6-18.4,0.8-27.2-2.3c-1.8-0.7-3.9-0.6-5.6,0.2c-1.2-0.5-2.4-0.9-3.6-1.4c-11.2-4-23.1-5.6-35-4.9
	c-21.9,1.4-42.5,10.7-58,26.1c-16.3,16.3-24.8,38.3-28.5,60.7c-3.9,23.5-6.4,49.6,0.1,72.8c7.8,28,19.7,55.3,31.1,81.9
	c3.6,8.5,18.4,2.4,15-6.3c-12.9-33.3-13.6-72.5-6.6-107.3c3.5-17.3,12.7-30.6,26.9-41c13.5-10,29.9-17.1,47-16.2
	c10,0.5,19.4,4.4,29.1,6.3c5.2,1,11.3,2,16.1,0.5c0.1,0.1,0.3,0.2,0.4,0.3c5.8,3.6,10.2,6.5,13.9,12.4c3.7,6,6.9,12.3,9.6,18.8
	c2.7,6.6,4.9,13.5,6.5,20.4c1.6,6.8,2.1,13.8,3.4,20.7c0.6,3.5,2.4,6.7,5.1,9c0,10,1.8,20.2,2.1,30c0.7,20.8-2.6,41.5-7.8,61.7
	c-4.3,16.8-10.5,39.5,7.3,51c8.2,5.3,17.6,3.8,26.8,3c8.5-0.7,17-0.9,25.4-0.5C1245,726.9,1245,726.8,1245.1,726.7z M1165.8,462.9
	c-0.5-0.7-1-1.4-1.6-2.1c1,0.5,1.9,1.1,2.8,1.6C1166.6,462.6,1166.2,462.7,1165.8,462.9L1165.8,462.9z"/>
<path class="st51" d="M1392.1,759.2c-4-5.1-10.1-8.5-15.5-12c-6.8-4.6-13.9-8.8-21.2-12.7c-14.1-7.3-28.9-11.9-44.8-12.8
	c-19.1-1-38.5,0.6-57.6,0.4c-15.3-0.1-34.9,2.3-47.7-7.7c-3.6-2.7-9.2-0.5-11.3,3c-1.2,1.8-1.5,4.1-0.8,6.2c-0.5,0.2-1,0.4-1.5,0.7
	l-0.2,0.1c-24.2,9.1-50.1,10.3-75.3,15c-15.2,2.9-30,7.5-44.3,13.5c-2.5-2.1-6.1-2.5-9-0.9c-22.5,11.5-44.7,23.5-66.7,36
	c-20.9,12-42.6,23.8-62,38.1c-8.6,6.4-16.7,13.8-21.8,23.3c-5.5,10.3-7.2,22-8,33.5c-1.7,25.8-2.5,51.8-3.7,77.6
	c-0.7,15.1-1.4,30.2-2.1,45.3c-0.4,1.9-0.7,3.8-1.1,5.7c-1.2,5.6-1.2,11.5,0,17.1c-0.3,7.2-0.7,14.4-1,21.5
	c-0.2,4.3,3.9,8.2,8.2,8.2c54.2,0,398,0.7,398,0.7c1.4-16.2,4.6-45.1,10.5-60.3c6.2-15.6,14-30.5,20.1-46.2
	c12.6-32.6,24-65.8,35.9-98.7c5.9-16.4,11.8-32.7,17.8-49.1C1391.9,791.1,1402.6,772.6,1392.1,759.2z M1286.3,1037l0.2-0.1
	c0,0,0,0.1,0,0.2L1286.3,1037z"/>
<path class="st39" d="M1075.9,737.5c0.3,5.7-9.1,6.1-12.2,10.9c-0.8,1.5-1.3,3.2-1.4,4.9c-1.1,7.6-2.2,15.1-3.3,22.7
	c-0.5,2.5-0.6,5-0.4,7.5c0.6,3.9,2.8,7.3,5,10.6c12.4,18.9,13.6,32.4,17.3,54.7c2.2,13.6,11,34.7,12.8,48.4
	c3.3,24.7,57.6,140.9,63.6,149.7c2.2,3.3,5.3,10,8.7,12h24.6c10.4-8.8,15.4-184.9,28-265.9c1.4-9.2,4.8-18,5.1-27.3
	c0.2-9.3-1.3-18.6-4.6-27.3c-3.9-10.8-11.5-22.1-23-23.2c-7.8-0.7-15.1,3.6-22.1,7.1c-17.7,8.8-37.1,13.3-56.9,13.3
	c-17.3-0.1-36.6-3.2-50.2,7.4"/>
<path class="st40" d="M1197.1,590.9c-0.2-9.2-0.4-18.5-2.4-27.6c-2-8.7-11.2-67.8-35.8-80.7c-15.9-8.3-34.8-3.3-51.9,0.4
	c-16.9,3.6-34.8,5.7-50.9,12.2c-14.8,6-27.4,15.8-33.9,30.8c-6.6,15.4-6.8,23.5-7.2,40c-0.2,8.6,6.3,19.5,9.6,33.8
	c3.3,14.5,1.2,30.2,4.4,39.8c4.3,13,9,23.9,12,32.8c7.3,18.6,16,37.7,22.8,45.7c12,11.7,28.9,18.2,45.5,22
	c16.1,3.7,33.2,2.2,47.1-7.1c12.5-8.4,21.7-20.8,28.9-33.8c4.1-7.4,12-36.9,11.8-46.2C1196.7,633.8,1197.5,610.1,1197.1,590.9z"/>
<path class="st40" d="M1198,723.3c-3-5.1-5.1-10.6-6.3-16.4c0.1-1.9-1.8-18-1.4-21.1c0.5-3.5-3.9-2.9-4.3,0.6c-0.1,1-0.3,2-0.3,3
	c-1.4-1.2-3.2-1.9-5-1.9c-3.9,0-8.4,3.8-8,8.2c0.5,5,1.1,10,1.6,15c-2.8,0.6-5.1,2.7-5.8,5.5c-0.3,1.2-0.7,2.4-1,3.6
	c-2.4-4.4-8.1-6.8-12.3-2c-3,3.5-6,6.9-9.1,10.3c-3.7,1.9-7.2,4.2-10.5,6.8c-2.6,0.9-5.3,1.5-8,1.9c-1.5,0.2-3.1,0.3-4.6,0.4
	c0.2-1.3,0.4-2.5,0.6-3.8c0.7-4.4-1.1-8.8-5.6-10.1c-3.8-1.1-9.1,1.4-9.8,5.8c-0.3,2-0.7,4-1,6c-2.1-0.5-4.3-0.5-6.4,0.1
	c-0.2,0.1-0.4,0.1-0.6,0.2c-1.6-4-2.8-8.2-3.6-12.4c-1.6-8.2-14.1-7.3-15.5,0c-2-8.2-5.5-16-10.3-22.9c-2.6-3.6-6.9-5.3-10.9-3
	c-0.5,0.3-1,0.7-1.4,1.1c0.8,1.4,1.5,3,1.9,4.6c0.9,0.6,1.6,1.6,1.8,2.7c0.2,0.7,0.3,1.4,0.5,2.2c0.7,3.3,0.7,7.4,1.3,10.8
	c0.2,0.9,4.1,25.1,4.1,31.1c0,7-2,15-0.8,21.8c1.5,8.2,9.3,11.7,15.8,15.3c6.8,3.8,13.8,6.9,20.8,10.2c2.8,1.3,6.5,2.9,8.4,5.5
	c2.2,3,0.9,5.5-0.3,8.7c-3,7.6-3,14.1,1.5,21.1s8.9,14,12.9,21.3c8.8,16.3,15.7,33.6,20.8,51.4c0.1,0.4,0.3,0.8,0.4,1.2
	c1,4.5,2.6,8.9,4.6,13c1.2,2.5,2.5,5.8,5.5,6.3s4.7-1.8,5.7-4.2c1.6-3.9,1.5-9.2,2-13.3c0.6-5.1,1-10.3,1.4-15.4
	c0.1-0.6,0.2-1.2,0.1-1.7c0.8-11.7,1.2-23.4,1.3-35.1c0.1-11.4-0.1-22.8-0.5-34.3c-0.3-10.6-1.6-21.5-1-32.2
	c1.3-22,26.7-25.2,36.2-41.8C1207.9,738.4,1202.6,730.9,1198,723.3z"/>
<path class="st39" d="M1033.1,544.2L1033.1,544.2L1033.1,544.2z"/>
<path class="st39" d="M1202.3,573.5c3.2,0,3.2-5,0-5S1199,573.5,1202.3,573.5z"/>
<path class="st39" d="M1005.4,474.3c-14.9,21.4-21,47.6-17.1,73.4c0.4,2.7,4.8,2.5,5.3,0c2-9.7,1.2-19.5,1.9-29.3
	c0.8-10.3,3.2-20.4,7.2-30c1.2-2.9-3.7-4.9-5-2.1l-0.9,2c-1.5,3.2,3.2,6,4.7,2.8l0.9-2l-5-2.1c-3.6,8.8-5.9,18.1-7,27.5
	c-1.2,10.6,0.1,21.3-2.1,31.8h5.3c-3.5-24.3,2.4-49,16.5-69.1C1012.1,474.2,1007.4,471.5,1005.4,474.3L1005.4,474.3z"/>
<path class="st39" d="M1005.4,557.1c1.6,1.5,3.5,1.6,5.6,1c2.7-0.8,5.3-1.8,8-2.8l-2.7-4.6c-1.7,1.5-3.7,2.7-5.8,3.6
	c-2.8,1.2-1,4.9,1.4,5.1c2.7,0.2,5.5-0.7,7.5-2.5l-3.9-3.9l-0.5,0.5c-2.6,2.4,1.3,6.3,3.9,3.9l0.5-0.5c2.6-2.5-1.2-6.2-3.9-3.9
	c-1,0.8-2.3,1.2-3.6,0.9l1.4,5.1c2.5-1.1,4.8-2.6,6.9-4.5c2-1.8-0.1-5.5-2.7-4.6l-5.2,1.8l-2.4,0.8c-0.3,0.1-0.6,0.2-0.9,0.3
	c-0.6,0-0.5,0.1,0.3,0.3C1006.7,550.9,1002.8,554.8,1005.4,557.1L1005.4,557.1z"/>
<path class="st40" d="M1204.8,557.1c-6.4-3.3-12.5,1.7-16.5,6.2c-2.4,2.6,1.5,6.5,3.9,3.9c1-1.1-0.4,2.4,0.7,1.5
	c-0.9,4.4,0.8,4.2,0.1,8.6c-0.2,1.4,0.5,2.7,1.8,3.3c0,2.5,0.1,5.1,0.2,7.6l0.1,15.8c0,0.6,0.2,1.2,0.6,1.7c0,0.3-0.1,0.6-0.2,0.9
	c-0.3,0.4-0.4,0.9-0.4,1.4l-0.1,1.3c-0.1,1.2,0.7,2.2,1.8,2.5c-0.7,0.8-1.6,1.4-2.5,2c-2.1-2.2-6.2,0.4-4.4,3.2l1.1,1.7
	c0.6,1.1,1.9,1.6,3.1,1.3c7-2.9,13-5.3,15.2-12.3c2.7-8.8,2.4-22,2.3-31.2C1211.5,570.5,1210.9,560.3,1204.8,557.1z"/>
<path class="st40" d="M1039,647.1l-7-23.3c-0.6-8.8-1.7-17.6-3.3-26.3c-0.1-1.2-1.1-2.1-2.3-2c0,0-0.1,0-0.1,0
	c-2.9-4.4-8.6-6-13.4-3.9c-6.1,2.8-6.7,10.2-6.1,16.1c0.9,9.3,2.9,18.5,6.1,27.4c2.8,7.5,9.4,19.7,17.3,18.5
	c1.8-0.3,4.6-0.1,5.3-1.3C1037.5,653.5,1039.9,649.9,1039,647.1z M1031.2,644c0.2-0.7,0.4-1.5,0.5-2.2
	C1031.9,642.5,1031.7,643.4,1031.2,644L1031.2,644z"/>
<path class="st39" d="M1052.7,794.9c-8.4-29.7-6-61-8-91.6c0.4-4.4,0.5-8.9,0.4-13.3c-0.3-0.8-0.7-1.6-1-2.4
	c-2-4.2-1.6-8.4-2.8-12.9c-1.7-6.4-4.2-13.4-5.4-19.9c-0.3-0.2-0.7-0.4-1-0.5c-0.8-0.9-8.4-1.1-10.7-2c-0.8-1.3-2.1-2.3-3.6-2.8
	c-3.4-4.5-6.1-9.4-8-14.6c-2.5-6.5-5.3-13.4-6.3-20.3c-2.2-14.3,2.5-28.4-0.3-42.5c-1.4-7-10.8-7.6-14.6-2.7
	c-0.8-14.3-1.8-28.6-2.8-42.9c-0.2-3.5-3.9-8.7-3.7-5.1c3.1,44.7,4.5,94.7,1,139.5c-0.9,11.7-2.3,23.3-4.2,34.8
	c-1.8,10.6-4.5,21-6.4,31.5c-3.2,18.2-0.3,38.5,11.5,53.3c6.6,8.2,15.4,10.6,25.3,12.4l25.5,4.8c2.3,2,5.5,2.6,8.3,1.6l2.4,0.5
	C1048.6,800.3,1054.3,795.5,1052.7,794.9z"/>
<path class="st39" d="M1032.6,551.5c-4.9,5.3-7.4,11.7-8.3,18.8c-0.5,4-0.5,7.9-0.6,11.8c0,0.6,0.3,3.4-0.3,3.8
	c-1.7,1.2-3.1-2.3-3.7-3.5c-1.6-3.1-6.3-0.4-4.7,2.8c2.7,5.4,10.9,12,13.6,2.8c1.2-4.3,0.5-9.1,0.8-13.5c0.5-7,2.2-13.8,7.1-19.1
	C1038.9,552.8,1035,548.9,1032.6,551.5L1032.6,551.5z"/>
<path class="st39" d="M1020.4,559.5c0-0.1,0-0.1-0.1-0.2c-0.4-1.2-1.4-2-2.6-2h-0.3c-1,0-1.9,0.5-2.4,1.4c-2.5,5.4-2.1,15,0.9,20.2
	c1.5,2.5,4.9,1.3,5.1-1.4c0.4-5.2,0.2-10.5-0.5-15.7c-0.5-3.4-5.4-3.6-5.5,0c-0.3,9.1,0.1,18.1,5.6,25.8c1.5,2.1,5.1,1.5,5.1-1.4
	c0-2.7-1.9-4.7-1.8-7.5c0.1-5.4,0.3-10.8,0.5-16.3h-5.5c0.6,6.7-0.8,13.3,0.8,19.9c0.6,2.3,3.8,2.6,5,0.7c3-4.9,0-11.5,2.6-16.4
	l-5-0.7c0.3,1.6,0.5,3.3,0.4,5c0,3.5,5.5,3.5,5.5,0c0-2.2-0.2-4.3-0.6-6.4c-0.4-2.3-4-2.6-5-0.7c-2.6,4.9,0.2,11.8-2.6,16.4l5,0.7
	c-1.4-6,0-12.3-0.6-18.4c-0.3-3.5-5.4-3.6-5.5,0c-0.2,5.4-0.3,10.9-0.5,16.3c-0.1,1.4-0.1,2.9,0.3,4.3c0.3,1,1.5,2.3,1.5,3.2
	l5.1-1.4c-4.9-6.9-5.1-14.8-4.8-23h-5.5c0.7,5.2,0.9,10.5,0.5,15.7l5.1-1.4c-1.4-2.4-1.5-5-1.4-7.7c0-1.9-0.3-5.2,0.5-7l-2.4,1.4
	h0.3l-2.7-2l0.1,0.2C1016.1,564.3,1021.4,562.9,1020.4,559.5L1020.4,559.5z"/>
<path class="st39" d="M1025.7,597.6c10.6-9.7,6.4-26.3,8.2-39c0.3-1.2-0.4-2.3-1.5-2.7c-1.2-0.3-2.3,0.4-2.7,1.5l0,0
	c-4.7,12.2,3.7,27.6-6,38.2c-0.6,0.6-0.6,1.4,0,2S1025.2,598.2,1025.7,597.6L1025.7,597.6z"/>
<path class="st39" d="M1192.1,559.1c2-0.1,3.9-1,5.3-2.5c2.4-2.5-1.4-6.4-3.9-3.9c-0.1,0.1-0.2,0.2-0.3,0.3c0.2-0.8,0.4-1.6,0.4-2.4
	c0.4-0.5,0.7-1.1,0.7-1.8c0.3-3.4-0.2-6.7-1.5-9.8c-0.3-0.8-1-1.5-1.8-1.7l-2-10c-0.3-1.3-1.5-2.1-2.8-1.9c-0.4-1.5-0.8-3.1-1.2-4.7
	c0.2-4.3,0.6-8.7-0.9-12.7c-0.3-0.9-1.1-1.5-2.1-1.6c-0.2-1.5-0.3-3-0.1-4.5c0.8-0.6,1.1-1.7,0.8-2.7l-0.1-0.3c-0.4-1.2-1.4-2-2.6-2
	h-0.4c-0.9,0-1.8,0.5-2.3,1.2c-0.9,0.2-1.6,0.8-1.8,1.7c-2.6-8-6.9-15.4-12.7-21.5c-2.5-2.5-6.3,1.4-3.9,3.9
	c13.2,13.5,14.7,32.5,17.2,50.2c0.8,6,2.3,12.6,5.3,18.2c2.4,7.1,7,13.1,13.2,17.3c1.8,1.2,3.9-1.5,2.3-3
	C1195.1,563.2,1193.5,561.3,1192.1,559.1z"/>
<linearGradient id="SVGID_47_" gradientUnits="userSpaceOnUse" x1="1057.62" y1="297.3683" x2="1180.9944" y2="297.3683" gradientTransform="matrix(1 0 0 -1 9.36 1022.7029)">
	<stop  offset="0" style="stop-color:#FFE3BB"/>
	<stop  offset="1" style="stop-color:#DDB895"/>
</linearGradient>
<path class="st52" d="M1067,719.8c4.9,11.5,23.3,45.7,58.8,45.1c36.2-0.5,66.1-41.8,64.5-79.1c-15.9,29.9-33.6,48.8-66.1,53.8
	C1092.8,744.3,1067,719.8,1067,719.8z"/>
<linearGradient id="SVGID_48_" gradientUnits="userSpaceOnUse" x1="1002.9326" y1="403.8517" x2="1023.3967" y2="403.8517" gradientTransform="matrix(1 0 0 -1 9.36 1022.7029)">
	<stop  offset="0" style="stop-color:#FFE3BB"/>
	<stop  offset="1" style="stop-color:#DDB895"/>
</linearGradient>
<path class="st53" d="M1020.3,597.5c3.5-0.1,6.4,3.2,7.6,6.5c0.8,2.3,8.5,37.9,2.8,36.1c-12.6-4.1-16.3-22.3-17.6-29.4
	C1012.3,606.1,1010,597.8,1020.3,597.5z"/>
<linearGradient id="SVGID_49_" gradientUnits="userSpaceOnUse" x1="1134.29" y1="163.9303" x2="1171.11" y2="163.9303" gradientTransform="matrix(1 0 0 -1 9.36 1022.7029)">
	<stop  offset="0" style="stop-color:#FFE3BB"/>
	<stop  offset="1" style="stop-color:#DDB895"/>
</linearGradient>
<path class="st54" d="M1157.1,924.9c2,0.4,3.7-0.6,5.5-2.3c7-6.8,9.1-18,10-27.4s3.2-18.5,3.7-27.8c0.6-10-0.9-19.9-2.1-29.9
	c-1.1-9.5-2.1-19-4.7-28.3c-0.9-3.2-3.8-11.3-3-16.7c-6.1,8.9-12.3,17.9-18.4,26.8c-1.7,2.4-3.4,5-4.1,7.8c-0.8,3.1-0.3,6.3,0.1,9.4
	c0.8,5.9,1.6,11.8,2.5,17.8c2.2,15.8,4.4,31.6,6.6,47.4C1154.3,909.5,1155.4,917.3,1157.1,924.9z"/>
<linearGradient id="SVGID_50_" gradientUnits="userSpaceOnUse" x1="1230.33" y1="116.8363" x2="1291.78" y2="116.8363" gradientTransform="matrix(1 0 0 -1 9.36 1022.7029)">
	<stop  offset="0" style="stop-color:#74CAC3"/>
	<stop  offset="1" style="stop-color:#528882"/>
</linearGradient>
<path class="st55" d="M1296.7,940.4l-2.4-1.9c0.4-0.5,0.6-1.1,0.6-1.7c0.6-0.6,1-1.4,1-2.3c0.3-0.5,0.4-1.1,0.4-1.7
	c0.1-5.8,0.1-11.6,0.2-17.4c1.3-0.5,2.2-1.8,2.2-3.2c0.4-12.9,0.8-25.7,1.2-38.6c0.2-2.9,0.5-5.8,0.8-8.7c0.2-0.5,0.2-1,0.1-1.5
	l-0.5-4.2c-0.1-1.1-0.7-2.1-1.5-2.7c0.5-1.4,0.9-2.8,1.2-4.3c0.1-0.4,0.1-0.7,0-1.1c0.2-0.3,0.4-0.6,0.6-1
	c3.4-6.1,5.2-11.6,2.5-18.4c-2.8-7-7.2-13.7-11.1-20.1c-4.4-7.2-9.1-14.2-14.1-21c-9.7-13.1-20.2-25.7-31.4-37.5
	c-0.9-0.9-2.3,0.5-1.4,1.4c20,22.4,37.2,47.1,51.2,73.6c2.3,4.3,4.6,8.6,3.1,13.6c-1.1,3.6-3.4,7-5.3,10.3
	c-3.8,6.5-7.9,12.9-12.2,19.1c-8.9,12.8-18.5,25.1-28.8,36.7c-1,1.1-1,2.7,0,3.8l35.5,29.2c2.2,1.8,7,4.4,8.2,7.1
	c1.3,2.9-2.6,6.9-4,9.1c-4.2,6.3-8.3,12.8-12.4,19.2c-5.3,8.6-10.5,17.2-15.6,25.9c-0.3,0.3-0.6,0.6-0.8,1c-0.2,0.4-0.3,0.8-0.5,1.1
	c-9.4,16.3-19.7,37.8-28.1,54.7h40.2c1.8-0.2,1.8,0.1,2-1.7c2.9-25,7.2-49.9,12.9-74.5c0.5-1.7,0.9-3.4,1.2-5.1
	c0.3-1.8-0.9-3.5-2.7-3.8c-0.2,0-0.4,0-0.5,0l1.8-2.8c3.7-5.8,9-11.8,11.6-18.2C1304.1,947.2,1300.9,943.8,1296.7,940.4z
	 M1259.2,909.1c0.1,0.3,0.1,0.5,0.2,0.8l-0.6-0.5L1259.2,909.1L1259.2,909.1z M1244.4,1053.6l-0.7-0.1l0.9-1.8
	C1244.5,1052.3,1244.5,1052.9,1244.4,1053.6L1244.4,1053.6z"/>
<linearGradient id="SVGID_51_" gradientUnits="userSpaceOnUse" x1="991.89" y1="83.8427" x2="1145.5699" y2="83.8427" gradientTransform="matrix(1 0 0 -1 9.36 1022.7029)">
	<stop  offset="0" style="stop-color:#74CAC3"/>
	<stop  offset="1" style="stop-color:#528882"/>
</linearGradient>
<path class="st56" d="M1154.1,1056.2c-19.5-5.3-34.9-18.7-50.4-30.9c-7.3-5.9-14.9-11.3-23-16.1c-9-5.2-18.5-9.5-27.1-15.5
	l14.8-26.6c2.5-4.4,5.3-8.8,7.4-13.4c1-2,1.9-4.1,0.9-6.4c-1.2-2.7-4.3-3.4-6.9-4.3c-5-1.8-10-3.6-15-5.6c-9.1-3.6-18-7.6-26.8-11.9
	c-4.2-2.1-8.3-4.2-12.4-6.4c-3.7-2-11.4-4.2-11.5-9.4c0-2.3,2.1-5.7,2.9-7.9l2.7-7.1c1.9-5.1,3.8-10.2,5.7-15.3
	c7.3-19.8,14.6-39.5,21.8-59.4c0.4-1.2-1.5-1.7-2-0.5c-8,19.6-16,39.2-23.7,58.8c-3.8,9.4-8,18.8-11.2,28.5c-2.5,7.9,2,10.3,8.3,14
	c3.2,1.9,6.4,3.7,9.7,5.5c-0.2,0.5-0.1,1.2,0.4,1.5c2.4,2,4.8,4,7.1,6c-0.3,1.3,0.3,2.6,1.4,3.2l6.9,3.7c2.3,1.8,4.5,3.7,6.9,5.4
	c5.8,4.4,10,7.7,6.5,15.6c-2,4.5-4.4,8.8-6.7,13.1c-4.6,9.1-9.5,18.2-13.7,27.4c-1.2,2.6-2.3,5.3-1.9,8.2c0.5,4,4.2,6.1,4.9,9.8
	c1.2,6.2-4.5,13.2-5.7,19.1s0.2,12,5.1,16c4.9,4,15.3,3.4,21,3.4c0,0,27.6,0,28.6,0h69.7C1149,1058.9,1157.4,1057.1,1154.1,1056.2z"
	/>
<path class="st39" d="M1652.6,436.1c-1.6-11.5-5.6-22.6-15.9-28.9c-8.1-4.9-18.7-9.7-24.1-20.7c-0.6-1.2-0.7-2.3-1.6-2.7
	c-3.3-8.5-16.8-12.2-24.5-15c-20.4-7.2-42-10.3-63.6-8.9c-41.5,2.5-88.8,20.9-110.2,58.9c-3.1,5.5-5.8,11.1-4.5,17.5
	c1.3,6.2,4.3,12.4,6.6,18.2c-0.1,4.4-0.4,8.8-0.8,13c-0.9,9.5-3.7,18.7-3.9,28.2c-0.2,9.9,3.3,16.2,9.9,23.3
	c5.7,6.1,11.8,11.3,19.7,14.5c5.6,2.3,11.4-4.4,9.7-9.7c-2.9-9-5.2-18.1-7-27.4c3.4-1.8,4.7-5.9,3.1-9.4c-2.1-4.7-2.8-10-4.7-14.9
	c-1.1-2.8-2.2-5.6-3.3-8.4c-0.6-2.4-1.1-4.9-1.6-7.4c-0.7-3.6-1.1-7.2-1.4-10.9c21.5-15.4,44.8-27.5,71.2-31.4
	c13.1-1.9,26.5-1.9,39.7-0.8c7.7,0.6,15.7,1.6,22.9,4.7c6.9,3,13.1,7.8,18.8,12.6c6.4,5.5,12.9,10,15.6,3
	c3.8,18.9,5.5,29.7,10.6,48.3c0.1,0.9,12.9,23.4,13.3,31.3c0.5,9.7,14.8,12.4,17.4,2.3C1650.4,489.8,1656.2,462.8,1652.6,436.1z"/>
<path class="st57" d="M1483.9,696.4c-24.8,19.1-50.2,38.6-79.9,48.6s-65.7,12.1-84.7,37.2c-6.9,9.1-10.5,20.2-13.2,31.2
	c-6.7,27.5-8,56-10.1,84.3c-3.9,53.1-11.3,108.8-20.5,161.2h611.6c4.6,0,9.6-4.3,14-5.4c4.7-1.2,8.8-4.2,12.2-7.7
	c15.2-15.8,17.3-39.9,16.5-61.8c-2-53.8-16.5-106.3-31-158.1l-19.4-69.7c-2.2-7.8-3.7-16.9-10.2-21.8c-12.6-9.5-31.2-12.8-48.8-13.4
	c-45.8-1.4-82.5-34.2-120.1-60.4c-10.2-7.1-27.5-18-33.6-13.7c-7.6,5.5-6.9,27-13.6,33.5c-5.3,5.1-13.3,5.6-20.6,6
	c-37,1.9-73.6,8.9-108.7,20.7c-4.8,1.6-9.9,3.3-14.8,2.3c-5.9-1.3-10.2-6.1-15.3-9.1s-13.2-3.5-15.9,1.8"/>
<linearGradient id="SVGID_52_" gradientUnits="userSpaceOnUse" x1="1139.1426" y1="154.5632" x2="1355.6826" y2="-163.6668" gradientTransform="matrix(1 0 0 -1 9.36 1022.7029)">
	<stop  offset="0" style="stop-color:#383865"/>
	<stop  offset="1" style="stop-color:#2F2A3A"/>
</linearGradient>
<path class="st58" d="M1277.2,1054.2c-0.3,1.6-0.6,3.2-0.8,4.8h1C1277.2,1057.4,1277.2,1055.8,1277.2,1054.2z"/>
<linearGradient id="SVGID_53_" gradientUnits="userSpaceOnUse" x1="1418.2422" y1="344.4701" x2="1634.7822" y2="26.2501" gradientTransform="matrix(1 0 0 -1 9.36 1022.7029)">
	<stop  offset="0" style="stop-color:#383865"/>
	<stop  offset="1" style="stop-color:#2F2A3A"/>
</linearGradient>
<path class="st59" d="M1923.7,1005.9c-0.9-15.1-5-32.3-15-44.2c-7.3-8.7-18.9-10.3-28.4-15.9c-11.7-6.9-14.9-17.5-12.9-30.4
	c0.5-3.2,1.3-7.2,1.6-11.3c-1.5-0.1-2.9-0.1-4.4,0c-2.9,0-5.8,0.2-8.7,0.5c-6.2,0.8-12.3,2-18.2,3.8c-9.7,2.8-18.8,7-27.8,11.4
	c9-1,18.4-0.4,25.6,3.4c2.2,1.1,0.9,4.1-1.2,4.3c-6,0.5-12.3-0.8-18.4-0.8c-6.2,0-12.3,0.6-18.4,1.8c-12.7,2.5-24.3,8.8-33.4,18
	c-0.4,0.5-1.3-0.2-0.9-0.7c7.7-11.5,18.8-18.9,32-22.9c2.3-0.7,4.8-1.3,7.4-1.9c5.1-5.2,10.8-9.6,17.1-13.3
	c11-7.4,22.9-13.3,35.5-17.6c3.4-1.2,6.8-2.2,10.2-3.1c-0.6-0.7-1.3-1.3-2-1.9c-9.5-7.1-25.3-1.3-36.1-1.1s-23.6-3.6-28-14.6
	c-2.8-7-0.6-14.5,3.6-20.5c10.4-14.8,27.2-25.5,41.9-35.7c7.3-5.1,15-10.1,21.6-15.9c2.7-2.3,5.2-4.7,7.5-7.4c0.7-0.8-0.2,0.5,0.8-1
	c0.3-0.5,0.6-1,0.9-1.5c0.1-0.1,0.1-0.2,0.2-0.3c0-0.1,0.1-0.2,0.2-0.3c0-0.1,0.1-0.2,0.1-0.3c0-1.1-0.1-2.2-0.2-3.2
	c-0.2-0.7-0.3-1.4-0.5-2.1l-0.1-0.3c0-0.1-0.1-0.2-0.3-0.6c-0.1-0.2-0.3-0.5-0.4-0.8s-0.6-0.5-0.8-0.7l-0.8-0.5l-0.6-0.2
	c-0.3-0.1-1.2-0.3-1.5-0.3c-0.5,0-0.9-0.1-1.4-0.1c-1.5,0-3,0.1-4.4,0.2c-0.1,0-0.8,0.1-1.7,0.3s-1.8,0.4-2.7,0.6
	c-1.8,0.4-3.5,0.9-5.3,1.5c-15.4,4.7-29.7,12.8-45.3,16.9c-6,1.6-13.2,2.8-18.8-0.5c-7.2-4.2-8.1-12.5-5.9-19.8
	c-0.4-4.5,0.6-9-0.3-13.4c-1.1-5.6-6-8.1-11.2-8.9c-3.7-0.6-7.4-0.8-11.2-1.2c-4.2,0.7-8.6,0.8-12.8,0.5c-15.5-1.1-28.9-9-38.4-21.1
	s-11.1-25.6-13.6-40.3c-1.6-9.5-3.8-18.7-7.8-27.2c-3.3-3.3-6.6-6.6-9.9-9.8c-3.9-3.1-7.8-6.2-11.8-9c-0.2,0.1-0.4,0.2-0.7,0.4
	c-7.6,5.5-6.9,27-13.6,33.5c-5.3,5.1-13.3,5.6-20.6,6c-37,1.9-73.6,8.8-108.8,20.6c-4.8,1.6-9.9,3.3-14.8,2.3
	c-5.9-1.3-10.2-6.1-15.3-9.1c-1.8-1-3.8-1.7-5.8-2.1c-4.4,12.6-16.4,22.2-23.3,33.9c-10.6,18-3.3,42.5,3.5,60.6
	c2.6,6.9,7.4,9.4,13.1,14c6.7,5.4,10.6,13.5,10.6,22.1c0.2,9.5-4,18.7-3.5,28.2c0.4,7.9,6.8,14.7,10,21.7c3.5,7.7,6.2,16.2,3.8,24.7
	c-2.6,8.4-9.4,14.7-18,16.7c-15.9,3.2-32.1-7.6-44.4-16.3c-15.5-11-24.8-26.6-32.1-43.9c-3.6-8.5-6.3-17.2-9.4-25.9
	c-2.9-8-6.8-14.4-14.4-18.6c-8.9-5-18.3-8.8-27.2-13.8c-2.6-0.8-5.2-1.8-7.7-3c-1.8-0.8-3.6-1.8-5.3-2.7c-3-0.4-6.1-0.8-9.2-1
	c7.4,5.7,15.2,11,22.3,17.3c8.9,8.1,25.3,26,13.1,38c-5.7,5.7-17,5.4-24.7,6.8c-4.1,0.8-8.1,1.7-12.2,2.7c-2.3,0.6-4.6,1.2-6.9,2
	c-0.9,0.3-1.9,0.6-2.8,1l-0.9,0.3l-0.4,0.2c-0.9,0.5-1.9,0.9-2.8,1.4c-0.4,0.3-1.9,1.3-1.9,1.2c-0.4,0.3-0.7,0.7-1,1.1
	c0,0.1,0,0.3,0,0.5c0.2,1.1,0.8,1.8,2,3.3c6.9,9.2,18.7,13.7,21.5,25.8c3.4,14.6-6.9,28.3-13.5,40.3c-6.9,12.6-12.1,27.2-13.5,41.6
	c-1.7,17.2-0.3,34.7-1.7,52c-0.8,9.5-1.8,19-2.8,28.5H1888c4.6,0,9.6-4.3,14-5.4c4.7-1.2,8.8-4.2,12.2-7.7c4.4-4.6,7.9-10,10.3-15.9
	C1924.4,1021.8,1924.1,1013.7,1923.7,1005.9z"/>
<path class="st51" d="M1667.1,633.8c-5.1-5.5-12.2-9.8-18.3-14c-8.8-6-17,8.3-8.3,14.2c2.8,1.9,5.5,3.8,8.2,5.8
	c1.1,0.8,2.6,1.8,4,2.8c-0.4,0.7-0.8,1.5-1,2.3c-12.1,38.9-24.2,77.8-33.5,117.4c-4.6,19.8-7.9,39.8-11.9,59.7
	c-3.8,18.9-10.5,36.7-17.9,54.4c-2.1-9.8-5.3-19.3-8.3-28.6c-5.6-17.3-12.2-34.3-19.7-50.8c-15.6-34.5-35.4-66.2-57.7-96.8
	c-1.5-1.9-3.5-3.2-5.9-3.8c2.6-11.4,3.3-23.1,2-34.7c-0.5-4.4-3.4-8.2-8.2-8.2c-4.1,0-8.7,3.8-8.2,8.2c1.6,13.3,0.2,26.9-4.1,39.6
	c-4.3,12.8-12.9,23.5-17.2,36.3c-3.9,11.7-3.5,25.5,4.5,35.4c7.4,9.2,19.7,11.1,27.8,19.2c9.9,9.8,7.1,22.1,8.6,34.6
	c1.4,11.5,7.8,20.6,16,28.5c7.4,7.2,16.6,13.7,20.9,23.4c2.4,5.6,3.5,11.9,4.7,17.9c1.7,7.8,3.3,15.5,4.9,23.3
	c7,33.5,13.8,67,20.4,100.6c0.3,2.3,1.8,4.2,3.8,5.3c1.9,2.5,4.9,3.9,8.1,3.5c4.4-0.6,6.6-3.9,7.1-8.1c3.7-29.5,10.6-58.5,18.2-87.1
	c3.8-14.4,7.6-28.8,11.9-43.1c3.9-12.9,10.6-23.3,17.3-34.8c6.5-11.1,10.5-22.5,10.3-35.5c-0.2-10.9-3.5-24.4,4.2-33.5
	c4-4.8,8.5-8.7,10.9-14.6c2.7-6.8,3-14.5,3.9-21.7c1.9-15,3.5-30,4.8-45.1c1.5-17.2,2.6-34.4,3.3-51.7
	C1672.9,646.6,1672.5,639.6,1667.1,633.8z"/>
<path class="st40" d="M1655.8,647.5c-2.6-21.8-8.8-45-8.8-45c-3.9-4-24.8-10.8-27.7-6.5c-14.5,21.4-33,42.8-54.9,56.9
	c-4.9,3.3-10.3,5.9-16,7.7c-6.1,1.8-11.5,1.6-17.7,1.2c-6.7-0.4-10.8,3-13.8,7.9c-3.2-0.3-6.3,1.1-8,3.8c-0.4-6.4-1.7-12.6-3.9-18.6
	c-3.7-9.8-19.7-5.5-15.9,4.4c1.8,4.6,3,9.4,3.5,14.3c0.1,1.2,1.4,23.4,18.4,61.9c7,13.7,14.4,27.3,22,40.8
	c9.9,17.4,21.7,38.3,28.1,54.2c3.9,9.7,20.6,44.1,22.3,52.9c1.2,6.6,3.6,9.2,7.5,4.8c2.2-2.5,18.9-40.1,21.3-51.3s12.6-57,14-68.7
	c0,0,1.2-19.3,4.4-30.2c2.9-9.9,13.5-26.4,16.5-36.2C1652.5,683.6,1658.3,668.1,1655.8,647.5z M1632.4,626c-6.2,8.6-8.6,19-13.9,28
	s-14.8,13.9-24.4,17.7c-21.1,8.4-43.3,13.8-65.9,16c1.3-3.6,2.7-7.4,3.2-9.5l0.8,0.1c1.5,0.2,3,0.3,4.5,0.3c3.1,0,6.2-0.2,9.3-0.8
	c12.4-2,23.8-8.3,33.7-15.7c18.2-13.6,34-30.5,47.5-48.9c2.6,3.4,5,7,7,10.8C1633.5,624.8,1632.9,625.4,1632.4,626z"/>
<path class="st40" d="M1665.5,538.1c1-14,7.2-29.3-6.6-39.3c-4.9-3.6-11.1-5.2-17.1-4.4c-3.6,0.6-6.6,2.7-10.2,3.4
	c-4.8,1-7.1-2.6-8.7-6.5c-3.3-8.1-4.7-17.5-6.6-26.1c-2.1-9.3-4-18.6-6.1-27.8c-1.5-6.7-3.9-13-9.4-17.3c-5.7-4.5-13.1-6.5-20.1-8.1
	c-19.2-4.7-39-6.6-58.8-5.6c-9.9,0.5-19.7,1.7-29.4,3.5c-4.1,0.7-8.1,1.7-12,3c-0.4-0.2-0.8-0.1-1.1,0.2c-0.3,0.2-0.5,0.4-0.8,0.6
	c-1.9,0.9-3.7,2.1-5.2,3.6c-7.4,4.3-16,6.4-23.7,10.1c-4.4,2.1-16.1,11.4-22.7,32.6c-2.1,6.6-4.7,57.2-1.1,63.2
	c4.3,7.3,7.5,15.3,9.5,23.6c0.1,0.4,0.2,0.7,0.4,1c1.5,13.3,4.1,26.4,7.8,39.2c1.5,5,3.2,9.9,5.2,14.7c1.7,5.8,4.3,11.3,7.6,16.4
	c2.9,5.9,6,11.7,8.9,17.7c2,4.1,3.8,8.4,5.1,12.8c1,3.3,32.9,39.5,40.3,45.5c5.7,4.6,17.7,2.7,25.3,2.9c4.6,0.1,9.2-0.2,13.8-0.8
	c2.7-0.1,5.5-0.6,8.1-1.3c2.6-0.5,5.2-1,7.7-1.5c10.6-2.2,21-5.3,31-9.4c0.4-0.2,0.8-0.4,1.2-0.8c11-2,18.8-10.8,23.7-21.2
	c3.6-7.6,5.9-15.8,9.7-23.3c3.5-6.8,8.5-12.8,11.8-19.7c3.5-7.4,4.3-15.2,4.2-23.2c0-4.2-0.7-8.8-0.1-13c0.7-5,5.1-4.6,8.9-6.5
	C1670.6,569,1664.6,550.6,1665.5,538.1z"/>
<path class="st40" d="M1545,669.3c9.7,0,9.7-15,0-15S1535.3,669.3,1545,669.3z"/>
<path class="st39" d="M1613.2,433.3c2,0.9,3.9,1.9,6,2.6c1.9,0.6,3.8,1,5.8,1.4c2.3,0.5,4.5-0.8,5.1-3.1c0.4-1.7-0.3-3.6-1.8-4.5
	c-1.6-1.2-3.3-2.2-5-3.2c-1.9-1-4-1.7-6-2.5c-2.3-0.9-5.2,0.8-6,3S1610.9,432.3,1613.2,433.3L1613.2,433.3z"/>
<path class="st39" d="M1397.5,418.9c-4.8,12-3.7,24.5,1.3,36.3c4.2,9.9,13,19.3,24.5,19.3c3.7,0,4.8-6.2,0.9-6.7
	c-20.8-2.8-27.7-30.3-23-47.9C1401.9,417.4,1398.4,416.6,1397.5,418.9L1397.5,418.9z"/>
<path class="st39" d="M1398.7,418.7c-2.8,6.3,5.7,9.6,10.6,10.2c5.6,0.6,16.6-1.2,17.3-8.1c0-1.3-1.1-2.3-2.3-2.3
	c-3.6-0.1-6.7,3.3-10.4,4c-3.2,0.6-11.8,0.7-12.7-3.4c-0.2-0.7-1-1.1-1.7-0.9C1399.2,418.2,1398.9,418.4,1398.7,418.7L1398.7,418.7z
	"/>
<path class="st39" d="M1399.4,425.1c-2.2,6-1.5,12.6,1.9,18c1.2,2,3.8,1.4,4.6-0.6c2-5,1.2-10.1,0.3-15.3c-0.6-3-5.2-2.2-5.3,0.7
	c0,8.5,0.1,17,2.3,25.3c0.9,3.3,5.7,2.5,5.8-0.8c0.1-5.8-0.7-11.5-2.5-17c-0.8-2.5-5.1-3-5.6,0c-1.4,8.1-1.2,20.2,6.8,25
	c1.4,0.8,3.3,0.3,4.1-1.1c0.1-0.2,0.2-0.4,0.3-0.6c1.4-5.2-0.3-9.6-2.7-14.2c-1.6-3.2-6.1-0.9-5.5,2.3c0.9,4.6,2.9,8.9,5.8,12.5
	c2.1,2.6,6.7-0.9,4.7-3.6c-2.3-3.1-3.9-6.7-4.7-10.5l-5.5,2.3c1.6,3.1,3.1,6,2.2,9.6l4.3-1.8c-5.4-3.2-5.2-13.1-4.2-18.4h-5.6
	c1.5,5,2.3,10.2,2.2,15.5l5.8-0.8c-2.3-7.8-2.5-15.7-2.7-23.7l-5.3,0.7c0.9,4.3,1.5,8.3,0,12.5l4.6-0.6c-3-4.1-3.8-9.4-2.2-14.3
	C1404.3,423.7,1400.3,422.6,1399.4,425.1L1399.4,425.1z"/>
<path class="st39" d="M1433,400.9c-8.5,7.6-20.4,19.6-32.6,11.9c-1.3-0.8-3.7-0.4-4.3,1.1c-5.4,12.8-4.4,33.9,9.4,41.5
	c2,1.1,4.4-1.1,3.2-3.2c-3.3-5.3-7-9.6-8.6-15.8c-1.7-6.4-1.1-13.2,1.6-19.2l-4.3,1.1c15.1,10,30.4-3,38.3-15.5
	C1436.5,401.2,1434.3,399.7,1433,400.9L1433,400.9z"/>
<path class="st39" d="M1402.9,419.7c2,3.3,8.4,3.5,11.8,3.4c1.5,0,2.7-1.3,2.6-2.8c0-1.2-0.8-2.2-1.9-2.5c-3.2-1.1-6.5-1.6-9.8-1.6
	c-1.6,0-2.9,1.3-2.9,2.9c0,0.5,0.1,1,0.4,1.4c1.8,3.2,4.8,5.4,8.4,6.2c0.3-2,0.5-3.9,0.8-5.9l-9.2-0.1c-4,0-4,6.1,0,6.2l6.3,0.1
	c2,0,3.7,0.1,5.1-1.3c1-1,1.2-2.6,0.5-3.8c0-0.1-0.1-0.2-0.1-0.3c-1.3-2.9-5.8-1.4-5.8,1.6v0.3c0.5-0.9,1-1.8,1.6-2.7
	c-0.4,0.3-2.9,0-3.4,0h-4.2v6.2l9.2-0.1c3.3,0,4.2-5.3,0.8-5.9c-2.1-0.3-3.9-1.5-5-3.3l-2.5,4.3c2.8,0,5.6,0.3,8.4,1v-5.2
	c-1.8,0.2-3.6,0.2-5.4,0c-1.6-0.2-3.1-0.9-4.8-0.4c-0.8,0.2-1.3,1.1-1,1.9C1402.9,419.5,1402.9,419.6,1402.9,419.7L1402.9,419.7z"/>
<path class="st40" d="M1514.7,1056.2c0-0.1,0-0.1,0-0.2c0.1-12-12.1-19.2-21-25.6c-12.6-9-26.5-20.9-42-24.4
	c-5.4-1.2-11.4-0.8-15.8,2.8c-4.6,3.8-5.4,9.4-5.3,15c0,3.6,0.6,7.5-0.5,10.9c-1.3,4-4.8,6-8.1,8.2c-4.8,3.3-8.9,7.2-9,13.3
	c0,1.5,1.2,2.7,2.7,2.7l98.7-0.1c0-0.2,0.2-0.7,0.2-0.9C1514.8,1057.5,1514.8,1056.8,1514.7,1056.2z"/>
<path class="st40" d="M1875,1022.3c0.7-4.3-0.4-8.7-3.1-12.2c-2.2-2.9-5.3-5-8.8-6c-2-0.6-4.1-0.9-6.1-1.6c-3.9-1.3-5.4-3.7-7.6-6.8
	c-6.7-9.4-18.7-6.5-28.6-5.4c-11.2,1.2-22.3,2.9-33.4,5c1.6-5.3-1.4-11-6.8-12.6c-1.8-0.5-3.7-0.6-5.5-0.1
	c-6.8,1.7-11.6,7.8-17.6,11.2c-6.1,3.5-13.7,3.5-19.3,7.9c-1.5,1.1-2.7,2.5-3.6,4.1c-2.6,2.8-4.8,5.9-8.1,8.2
	c-0.7,0.5-1.4,0.9-2.1,1.3h-0.1c-6.9,2.9-13.7,6.1-20.2,9.8c-6,3.4-9.5,6.8-12.6,12.8c-3.6,7-6.8,14.2-9.7,21.5
	c0,0,64.5-0.8,77.1-0.6c12.3,0.2,102.3,0.2,102.3,0.2c2.9-1.1,6.6-4.1,7.9-7c2.1-4.5-0.4-9.8,0.2-14.5
	C1869.9,1032.9,1874.2,1027,1875,1022.3z"/>
<linearGradient id="SVGID_54_" gradientUnits="userSpaceOnUse" x1="1498.87" y1="364.0461" x2="1634.39" y2="364.0461" gradientTransform="matrix(1 0 0 -1 9.36 1022.7029)">
	<stop  offset="0" style="stop-color:#FFE3BB"/>
	<stop  offset="1" style="stop-color:#DDB895"/>
</linearGradient>
<path class="st60" d="M1508.2,685.4c2.2,2.2,23.1,21.4,23.1,21.4s10.4,13.2,43.9,3.3c27.4-8.1,50.8-26.9,58.7-47.2
	s9.9-59.3,9.9-59.3s-18.1,57.6-26.3,66.4s-46.1,15.9-46.1,15.9l-43.9,7.1L1508.2,685.4z"/>
<linearGradient id="SVGID_55_" gradientUnits="userSpaceOnUse" x1="1562.7968" y1="223.5064" x2="1635.46" y2="223.5064" gradientTransform="matrix(1 0 0 -1 9.36 1022.7029)">
	<stop  offset="0" style="stop-color:#FFE3BB"/>
	<stop  offset="1" style="stop-color:#DDB895"/>
</linearGradient>
<path class="st61" d="M1644.8,704.5c-7.1,23.3-25.3,41.4-48.6,48.4c-6.1,1.7-12.6,2.8-17.7,6.4s-8.4,11.1-4.9,16.4
	c1.5,2.2,3.8,3.6,5.9,5.3c8.9,7.2,13.2,18.7,11.2,30c-1.1,5.7-3.8,11-5.9,16.4c-7.8,19.6-6.8,46.3-0.6,66.5c5.8-3,11.5-13.7,14-19.8
	c3.9-9.4,6.9-16.9,11.3-26.1c4.5-9.4,6.6-24.5,8-34.8c2.3-17.4,1.3-31.8,4.8-49s9.4-34.2,19.9-48.3"/>
<linearGradient id="SVGID_56_" gradientUnits="userSpaceOnUse" x1="1461.11" y1="252.9279" x2="1484.42" y2="252.9279" gradientTransform="matrix(1 0 0 -1 9.36 1022.7029)">
	<stop  offset="0" style="stop-color:#74CAC3"/>
	<stop  offset="1" style="stop-color:#528882"/>
</linearGradient>
<path class="st62" d="M1487.7,775.1c-4.8-8.1-1-17.4-4.8-25.6c-2.8-6.2-10-3.3-11.9,1.9c-2.7,7.2,1.7,13.8,6.2,19.1
	c4.7,5.6,11.3,12.6,13.8,20.1c1.4,0.7,2.7,1.7,3.7,2.9c0.1-6.1-3-12.2-6.7-17.8C1487.9,775.5,1487.8,775.3,1487.7,775.1z"/>
<linearGradient id="SVGID_57_" gradientUnits="userSpaceOnUse" x1="1624.48" y1="254.5892" x2="1641.67" y2="254.5892" gradientTransform="matrix(1 0 0 -1 9.36 1022.7029)">
	<stop  offset="0" style="stop-color:#74CAC3"/>
	<stop  offset="1" style="stop-color:#528882"/>
</linearGradient>
<path class="st63" d="M1648.5,771.1c1-3.4,2.2-6.7,2.9-10.2c1.3-6.8-1.5-20.2-11-19.5c-10.1,0.7-6.5,17.6-4.4,23.2
	s4.6,11.2,6.1,17.1c1.1,4.3,1.8,9.1,3.9,13.1c0.4-1.1,1-2.1,1.6-3.1c0.4-0.9,0.8-1.9,1.3-2.8c-0.6-2.8-1.1-5.6-1.7-8.3
	c0-0.5,0-0.9,0-1.4c0.1-2.6,0.5-5.2,1.3-7.6C1648.5,771.5,1648.5,771.3,1648.5,771.1z"/>
<linearGradient id="SVGID_58_" gradientUnits="userSpaceOnUse" x1="1494.5699" y1="145.0583" x2="1622.34" y2="145.0583" gradientTransform="matrix(1 0 0 -1 9.36 1022.7029)">
	<stop  offset="0" style="stop-color:#74CAC3"/>
	<stop  offset="1" style="stop-color:#528882"/>
</linearGradient>
<path class="st64" d="M1634.4,726.1c-14.6,28.6-14,61.9-19.7,92.8c-2.9,15.5-6.8,31.1-13.6,45.4c-3.3,6.8-7.2,13.3-11.7,19.4
	c-1.7,2.3-3.1,4.8-4.3,7.4c-1.9-8.1-4.5-16-7.6-23.7c-4.7-11.8-7.7-24.1-12.7-35.7c-4.9-11.3-11.4-21.7-17.8-32.1
	c-3.4-5.5-7.1-11.1-10.6-16.7c-0.1-0.5-0.1-1.1-0.2-1.7c-0.1-1.4-1.1-2.6-2.5-2.8c-1-1.8-2-3.5-3-5.3c-1.7-4.8-4.5-9.1-8.2-12.5
	c-0.5-0.5-1.3-0.4-1.8,0.1c-0.4,0.5-0.4,1.2,0,1.6c12.2,14.6,6.3,35.6,4.3,52.6c-1.1,9.4-1.4,19.2,2.1,28.1
	c2.7,6.9,7.5,12.7,13,17.7c5.9,5.4,12.5,10,18.2,15.7c7.1,6.9,12,15.7,14.1,25.4c1.6,7.1,0.4,15.5,0.2,23.5
	c-0.6-1.8-1.2-3.5-1.8-5.3c-2.8-8.5-5.7-17.1-10.9-24.5s-11.8-12.8-18.7-18.5c-8.3-7-12-11.2-18.4-19c-6.8-8.4-12.5-17.7-17-27.6
	c-0.5-1.2-3.8-1.9-3.4-0.7l0.8,3.4c5.6,17.7,13.9,31,28.3,42.5c3.6,2.8,7.3,5.6,11,8.4c0,0.3,0.2,0.6,0.4,0.7
	c9.7,8.2,11.9,20.8,12.3,32.9c0.2,7,0.1,14,1.1,21s4,13.4,5.6,20.3c1.7,7.4,0.6,15.1,1,22.6c0.3,6.8,1.1,13.5,2.2,20.2
	c0.6,3.5,1.3,7.1,2.2,10.6c0,2.9,0.7,5.7,2,8.3c0.4,0.7,0.8,1.3,1.2,1.8c1.7,4.2,4.8,7.5,9.6,7c0.3,0,0.7-0.1,1-0.2
	c0,0.1,0,0.2,0,0.3c0.3-0.1,0.5-0.1,0.8-0.2c1-0.3,1.8-0.7,2.7-1c-1.6-10.6-3.2-21.1-4.7-31.7c-1-6.9-1.2-12.6,2.4-18.8
	c2-3.4,4.2-6.5,5.6-10.3c1.9-4.9,2.2-10.3,0.8-15.3c-0.5-8.1-0.9-16.2-1.3-24.3c-0.2-5.7-0.3-11.3-0.3-17c0-6-0.6-12.4,1.9-17.9
	c3.8-8.3,10.2-15.3,14.3-23.5c4.1-8.2,7.4-16.9,9.9-25.7c11.2-38.3,8.4-79.9,23-117.2C1636.8,725.8,1635,725,1634.4,726.1z
	 M1559.2,902.5l-0.2-0.6c0.4,0.6,0.7,1.3,1.1,1.9C1559.8,903.4,1559.5,902.9,1559.2,902.5z M1562.1,849.4c0.5,1.4,1.1,2.8,1.6,4.2
	l-1.3-3.2C1562.3,850,1562.2,849.7,1562.1,849.4L1562.1,849.4z"/>
<linearGradient id="SVGID_59_" gradientUnits="userSpaceOnUse" x1="1023.19" y1="499.7156" x2="1161.1541" y2="499.7156" gradientTransform="matrix(1 0 0 -1 9.36 1022.7029)">
	<stop  offset="0" style="stop-color:#FFE3BB"/>
	<stop  offset="1" style="stop-color:#DDB895"/>
</linearGradient>
<path class="st65" d="M1032.6,559.7c3.7-11.5,5.6-17.1,12.9-26.8s17.3-16.3,27.3-22.7c22-14.3,45.2-28.5,71.2-32.4
	c7.4-1.1,15.3-1.3,22,1.9c0,0,2.7,4.3,3.8,14.9c0.5,5.2,2.1,12.3-1.5,16.1c-5.7,6-11.4,12-18,17c-5.2,3.8-10.7,7.2-16.4,10.1
	c-32.2,17.1-63.3,31.4-99.7,31L1032.6,559.7z"/>
<path class="st39" d="M1183.7,453c-0.3-3.2-3.9-6.4-6.1-8.3c-2.7-2.4-5.9-4.1-9-1.3c-0.1,0.1-0.2,0.2-0.3,0.3
	c-1.4,0.6-2.1,2.3-1.5,3.7c0.1,0.3,0.3,0.6,0.5,0.8c0.9,1,1.9,1.9,2.8,2.8c-1.2,2.2-1.8,4.7-1.9,7.2c-0.3,0.4-0.5,0.8-0.8,1.2
	c-6.6-2.6-9.5,8.6-2.6,8.2c2.3-0.1,4.3-1.9,5.9-3.8c4,2.7,9.1-2.3,9.3-6.6c2,0,3.6-1.7,3.6-3.6
	C1183.7,453.3,1183.7,453.2,1183.7,453L1183.7,453z"/>
<path class="st39" d="M992,508.1c3.8-16.6,10.7-33,21.8-45.9c5.5-6.2,11.9-11.6,18.9-16c0.4-0.1,0.7-0.2,1-0.4
	c6.8-4.5,13.9-8.4,21.4-11.6l-0.1,0.1c-2,2.6,0.5,6.7,3.7,4.8c7.2-4.1,13.2-7.7,21.7-8.2c8-0.5,16.2-0.1,24.2-0.1s16.2,0,24.1,2
	c5.5,1.5,10.9,3.3,16.3,5.4c0.5,0.6,1,1.2,1.4,1.8c1,1.3,2.9,1.6,4.2,0.6c0.2-0.1,0.3-0.3,0.5-0.4c1.4-0.1,2-2.3,0.7-3.2
	c-0.5-0.4-1.1-0.7-1.6-1c-13.2-17-36.5-19-56.6-17.1c-11.5,1.1-22.9,3.6-33.8,7.6c-0.3,0-0.7,0-1,0.1c-9.5,2.9-18.2,8.3-26.7,13.5
	c-8.3,5.1-16,10.9-22.4,18.3c-11.8,13.7-19.3,30.8-23.2,48.3c-7,31.3-1.4,64.1,15.5,91.4c0-0.1,0-0.1,0.1-0.2
	c0.3-0.6,0.8-1.1,1.5-1.4c0.3-0.9,0.6-1.8,0.8-2.8c0.1-0.5,0.3-0.9,0.5-1.3C990.3,566.9,985.7,536.8,992,508.1z"/>
<path class="st39" d="M1162.2,474.3c0.2-1.6-0.9-3-2.5-3.2c0,0-0.1,0-0.1,0c0.4-1,0.7-2,1-2.9c0.4-1.5-0.5-3-1.9-3.4
	c-3.6-0.9-5.7,1.4-7.4,4.1c-0.9-1.5-2.8-2.1-4.3-1.2c-0.5,0.3-0.8,0.6-1.1,1.1c-1.9,2.6-3.6,5.4-5.1,8.2c-0.3-0.4-0.7-0.6-1.2-0.8
	c0.4-1,0.2-2.1-0.7-2.8l1.1-1.7c1.7-2.6-2.2-5.6-4.3-3.3c-1.2,1.2-2.3,2.5-3.4,3.7c0.5-3.1-4.1-5.3-6.1-2.1
	c-2.2,3.3-4.7,6.4-7.4,9.3c-0.6-1.4-2.2-2-3.6-1.4c-0.1,0-0.2,0.1-0.2,0.1c-2.2,1.1-4.4,2.3-6.4,3.5c0-1.9-1.9-3.7-4-2.4
	c-3.3,2.1-6.5,4.3-9.8,6.4l4-3.4c2.5-2.2-0.7-5.5-3.3-4.3c-6.4,3.1-12.6,6.5-18.5,10.4c0.7-2.1-1.9-4.9-4-3.3
	c-1.8,1.3-3.5,2.6-5.1,4c0.4-0.6,0.7-1.2,1.1-1.9l1.9-1.8c0.9-0.7,1.1-2,0.5-3c0.2-0.3,0.3-0.7,0.5-1c1-2.3-1.2-5.5-3.8-3.8
	c-11.9,8-22.3,17.7-32.2,27.9c-3,0.5-5.8,4.6-7.4,6.4c-6.8,7.3-12.7,15.4-17.6,24.1c-1.5,2.6,2.3,5.8,4.3,3.3
	c0.2-0.3,0.4-0.5,0.7-0.8c-0.3,0.8-0.1,1.7,0.4,2.4c-0.2,0.3-0.5,0.7-0.7,1l-2-0.1c-3.7-0.3-4.2,4.6-1.6,6.3c-0.5,1.2-1,2.4-1.5,3.6
	c-1.7,0.1-3.3,0-5,0c-3.5-0.2-3.5,5.3,0,5.5c0.5,0,1,0,1.5,0.1c-0.8,1.4-0.4,3.1,0.9,4c0.4,0.9,1.3,1.6,2.3,1.7
	c2.6,0.3,5.1,0.4,7.7,0.2c11.5,1.7,23.3-2.8,33.9-7.3c8.9-3.8,17.6-8.1,25.9-12.9c1.9-0.7,3.9-1.4,5.8-2.1c2.7-1,5.4-2,8-3.1
	c-5.3,3.1-10.7,6-16,9.1c-11.2,6.5-22.3,13.6-35,16.7c-1.6,0.4-1.3,3.1,0.4,2.9c12.1-1.5,29.5-7.5,40.3-12.7
	c47.7-22.8,79.1-52.1,87.5-68.3C1169.5,483.4,1163.5,474.9,1162.2,474.3z"/>
<linearGradient id="SVGID_60_" gradientUnits="userSpaceOnUse" x1="1625.0601" y1="489.0829" x2="1649.2078" y2="489.0829" gradientTransform="matrix(1 0 0 -1 9.36 1022.7029)">
	<stop  offset="0" style="stop-color:#FFE3BB"/>
	<stop  offset="1" style="stop-color:#DDB895"/>
</linearGradient>
<path class="st66" d="M1634.4,517.6l3.3,42.3c0,0,13.2,3,14.3-3.6s-2.2-8.5,0.3-15.9s10.7-16.5,3.3-26.6
	C1648.2,503.8,1635,503.4,1634.4,517.6z"/>
<linearGradient id="SVGID_61_" gradientUnits="userSpaceOnUse" x1="1422.6036" y1="542.0837" x2="1623.5447" y2="542.0837" gradientTransform="matrix(1 0 0 -1 9.36 1022.7029)">
	<stop  offset="0" style="stop-color:#FFE3BB"/>
	<stop  offset="1" style="stop-color:#DDB895"/>
</linearGradient>
<path class="st67" d="M1435.5,458.8c0,0-3.2,17.4-3.6,25c-0.8,17.3,77.9-22.8,125.6-7.4c47.7,15.4,39.1,52.4,73.3,56.8
	c14.8,1.9-55.7-105.1-55.7-105.1l-128.4,24.7L1435.5,458.8z"/>
<path class="st39" d="M1647.7,480.1c-0.1-3.1-2.5-5.5-5.6-5.6c-4.5-0.2-6.9,2.3-10.2,5.1l0,0c1-3,0.4-6.4-1.5-8.9
	c-1-1.3-2-2.5-2.8-3.8c-0.7-6.5-4.1-13.3-7.6-18.4c-0.8-1.3-2-2.3-3.3-3c0.1-2.6,0.1-5.2,0-7.8c0.9-0.8,1.3-1.9,1.4-3.1
	c0-0.2,0-0.5,0-0.7c0.1-1-0.2-1.9-0.8-2.7c-0.3-2.1-1.3-4-2.8-5.4l-5-4.7c0.1-0.4,0.1-0.7,0.2-1.1c0.4-3-3.3-5.8-5.4-4
	c-1-1-2-1.9-3-2.9s-2-2-3-3c-3.1-3-7.9-3.5-11.5-1.1c-0.7-2-2.2-3.6-4.2-4.5l-9-4.4c-4.3-2-9.5-0.8-12.5,2.9h-2.9
	c-1.7-2.2-4.4-3.4-7.2-3.4c-13.1-0.3-26.7-0.5-39.6,2.4c0-0.5,0-0.9-0.1-1.4c-0.6-4.2-4.5-8.7-9.3-8.2c-24.8,3-49.6,7.5-72.2,18.6
	c-9.3,4.5-23.8,11.4-26.8,22.2c-1.9,6.6,1.4,13.2,3.4,19.4c2.2,6.9,4,14,5.9,21c1.7,6.2,9.7,4.8,11-0.7c0.8-0.1,1.8-0.1,2.2-0.7
	c25.1-35.9,95.6-19.2,131.3-35.1c4.3-1.9,9.6-1.7,16.3,2.3c6.3,3.8,14.1,9.8,18,15c3.5,11.3,7.4,22.5,10.6,33.9
	c1.3,4.7,2.4,9.8,6.4,12.9c2.7,2.1,5.9,3.2,9,4.3c3.4,9.5,7.7,18.7,12.9,27.4c0.5,0.7,1.4,1,2.2,0.6c0.7-0.2,1.2-0.7,1.3-1.5
	c0.6-7.7,0.6-15.5,0.1-23.2c-0.4-9.4,6.9-15.3,10.3-14.7c1.7,0.3,0.9-4.8,0.1-6C1646.3,485.9,1647.6,483.1,1647.7,480.1z
	 M1420.5,443.5c-0.7-1.5-1.1-3.2-1.1-4.8c0.3-2.7,5.7-5.4,8.7-7C1425.4,435.5,1422.9,439.5,1420.5,443.5L1420.5,443.5z"/>
<path class="st0" d="M0.4,583.5c0,0,36,241.5,145.4,310c141.4,88.5,185.7-34.3,429.1,166.7H0.4V583.5z"/>
<rect y="-151.4" class="st68" width="1920.9" height="1200.6"/>
</svg>
